<?xml version="1.0" encoding="UTF-8" standalone="yes"?>
<!DOCTYPE svg PUBLIC "-//W3C//DTD SVG 1.1//EN" "http://www.w3.org/Graphics/SVG/1.1/DTD/svg11.dtd">

<svg width="100" height="100" viewBox="0 0 100 100" xmlns="http://www.w3.org/2000/svg" xmlns:xlink="http://www.w3.org/1999/xlink" version="1.1" baseProfile="full">
    <g transform="scale(1.000000,-1.000000) translate(0,-100)">
        <path d="M 10.082895 49.698463 Q 9.552937 50.861427 8.007225 50.861427 Q 6.211256 50.861427 5.592971 49.698463 Q 5.254387 49.036016 5.254387 47.725841 L 5.254387 38.068825 L 1.000000 38.068825 L 1.000000 54.085340 L 5.077734 54.085340 L 5.077734 51.744691 Q 5.857950 52.995981 6.549840 53.525939 Q 7.771688 54.468087 9.714868 54.468087 Q 11.555001 54.468087 12.688523 53.658429 Q 13.601228 52.907655 14.072302 51.729970 Q 14.896682 53.143192 16.118530 53.805639 Q 17.413983 54.468087 19.003858 54.468087 Q 20.063774 54.468087 21.094249 54.055897 Q 22.124723 53.643708 22.963823 52.613233 Q 23.640992 51.774133 23.876529 50.552285 Q 24.023740 49.742626 24.023740 48.182194 L 23.994298 38.068825 L 19.695748 38.068825 L 19.695748 48.285241 Q 19.695748 49.197947 19.401327 49.786790 Q 18.841926 50.905590 17.340378 50.905590 Q 15.603293 50.905590 14.940845 49.462926 Q 14.602261 48.697431 14.602261 47.622794 L 14.602261 38.068825 L 10.377316 38.068825 L 10.377316 47.622794 Q 10.377316 49.050737 10.082895 49.698463 Z M 38.170680 40.335868 Q 38.111795 40.262263 37.876258 39.894236 Q 37.640721 39.526210 37.316858 39.246510 Q 36.330547 38.363246 35.410481 38.039383 Q 34.490414 37.715519 33.253845 37.715519 Q 29.691348 37.715519 28.454779 40.276984 Q 27.762889 41.690206 27.762889 44.443044 L 27.762889 54.114782 L 32.061439 54.114782 L 32.061439 44.443044 Q 32.061439 43.073986 32.385303 42.382096 Q 32.959424 41.160248 34.637625 41.160248 Q 36.786900 41.160248 37.581837 42.897333 Q 37.994027 43.839481 37.994027 45.385192 L 37.994027 54.114782 L 42.248414 54.114782 L 42.248414 38.068825 L 38.170680 38.068825 Z M 57.352222 53.378729 Q 59.236518 52.171602 59.516218 49.227389 L 55.320716 49.227389 Q 55.232390 50.037048 54.864363 50.508122 Q 54.172473 51.361943 52.508993 51.361943 Q 51.139935 51.361943 50.558453 50.935032 Q 49.976971 50.508122 49.976971 49.934000 Q 49.976971 49.212668 50.595255 48.888805 Q 51.213540 48.550221 54.967411 47.725841 Q 57.469991 47.136999 58.721281 45.944593 Q 59.957850 44.737466 59.957850 42.926775 Q 59.957850 40.541963 58.183962 39.033054 Q 56.410075 37.524146 52.700367 37.524146 Q 48.917054 37.524146 47.113724 39.121381 Q 45.310394 40.718616 45.310394 43.191754 L 49.564781 43.191754 Q 49.697271 42.072954 50.138902 41.601880 Q 50.919119 40.762779 53.024230 40.762779 Q 54.260800 40.762779 54.989492 41.130806 Q 55.718185 41.498832 55.718185 42.234885 Q 55.718185 42.941496 55.129342 43.309523 Q 54.540500 43.677549 50.757187 44.575534 Q 48.033791 45.252703 46.914990 46.268456 Q 45.796189 47.269488 45.796189 49.153784 Q 45.796189 51.376664 47.540635 52.973899 Q 49.285081 54.571135 52.450109 54.571135 Q 55.453206 54.571135 57.352222 53.378729 Z M 70.409804 41.057200 L 70.409804 37.921614 L 68.422461 37.848009 Q 65.448806 37.744962 64.359448 38.878483 Q 63.652837 39.599815 63.652837 41.101364 L 63.652837 50.979196 L 61.415235 50.979196 L 61.415235 53.967571 L 63.652837 53.967571 L 63.652837 58.442774 L 67.804176 58.442774 L 67.804176 53.967571 L 70.409804 53.967571 L 70.409804 50.979196 L 67.804176 50.979196 L 67.804176 42.499864 Q 67.804176 41.513553 68.054434 41.270656 Q 68.304692 41.027758 69.585424 41.027758 Q 69.776798 41.027758 69.990254 41.035119 Q 70.203709 41.042479 70.409804 41.057200 Z M 17.229970 10.951437 L 17.229970 1.529958 L 12.946141 1.529958 L 12.946141 11.290022 Q 12.946141 12.585475 12.504509 13.380413 Q 11.930388 14.499213 10.325792 14.499213 Q 8.662312 14.499213 7.801130 13.387773 Q 6.939948 12.276333 6.939948 10.215384 L 6.939948 1.529958 L 2.759167 1.529958 L 2.759167 23.155197 L 6.939948 23.155197 L 6.939948 15.485524 Q 7.852654 16.884025 9.052421 17.436065 Q 10.252187 17.988105 11.577083 17.988105 Q 13.063910 17.988105 14.278397 17.472868 Q 15.492885 16.957630 16.273101 15.897714 Q 16.935549 14.999729 17.082759 14.050221 Q 17.229970 13.100712 17.229970 10.951437 Z M 21.749336 15.838830 Q 23.412816 17.958663 27.461108 17.958663 Q 30.096178 17.958663 32.142405 16.913467 Q 34.188633 15.868272 34.188633 12.968223 L 34.188633 5.607692 Q 34.188633 4.842197 34.218075 3.752838 Q 34.262238 2.928459 34.468333 2.634038 Q 34.674428 2.339617 35.086617 2.148243 L 35.086617 1.529958 L 30.523088 1.529958 Q 30.331715 2.015753 30.258109 2.442664 Q 30.184504 2.869575 30.140341 3.414254 Q 29.271798 2.472106 28.138276 1.809658 Q 26.783939 1.029442 25.076296 1.029442 Q 22.897579 1.029442 21.476996 2.273372 Q 20.056414 3.517301 20.056414 5.799066 Q 20.056414 8.757999 22.338178 10.082895 Q 23.589468 10.804227 26.018444 11.113369 L 27.446387 11.290022 Q 28.609350 11.437232 29.109866 11.658048 Q 30.007851 12.040796 30.007851 12.850454 Q 30.007851 13.836765 29.323322 14.212152 Q 28.638793 14.587540 27.313897 14.587540 Q 25.827070 14.587540 25.208785 13.851486 Q 24.767153 13.306807 24.619943 12.379380 L 20.571651 12.379380 Q 20.704140 14.484492 21.749336 15.838830 Z M 24.870201 4.562497 Q 25.459043 4.076702 26.312865 4.076702 Q 27.667202 4.076702 28.808085 4.871639 Q 29.948967 5.666576 29.993130 7.771688 L 29.993130 9.332121 Q 29.595661 9.081863 29.190832 8.927291 Q 28.786003 8.772720 28.079392 8.640231 L 27.137244 8.463578 Q 25.812349 8.228041 25.238227 7.889457 Q 24.266637 7.315335 24.266637 6.108208 Q 24.266637 5.033571 24.870201 4.562497 Z M 36.337908 17.575915 L 41.048647 17.575915 L 44.390328 5.740182 L 47.805614 17.575915 L 52.310259 17.575915 L 46.524882 1.529958 L 42.093842 1.529958 Z M 68.415100 6.240698 Q 68.253168 4.812755 66.928273 3.340649 Q 64.867324 1.000000 61.157617 1.000000 Q 58.095636 1.000000 55.754987 2.972622 Q 53.414339 4.945244 53.414339 9.391005 Q 53.414339 13.557065 55.526811 15.779945 Q 57.639283 18.002826 61.010406 18.002826 Q 63.012471 18.002826 64.617066 17.252052 Q 66.221662 16.501278 67.266857 14.881961 Q 68.209005 13.454018 68.488705 11.569722 Q 68.650637 10.465642 68.621195 8.389973 L 57.639283 8.389973 Q 57.727610 5.975719 59.155552 5.004129 Q 60.024095 4.400565 61.245943 4.400565 Q 62.541397 4.400565 63.351055 5.136618 Q 63.792687 5.534087 64.131271 6.240698 Z M 64.263761 11.157532 Q 64.160713 12.821012 63.255368 13.682194 Q 62.350023 14.543376 61.010406 14.543376 Q 59.553021 14.543376 58.750723 13.630671 Q 57.948425 12.717965 57.742331 11.157532 Z" transform="scale(1.000000,1.000000) translate(14.295098,20.278613)" opacity="1.000000"></path>
        <path d="M 72.098900 1.789500 L 72.701000 1.820700 L 73.576900 1.893900 L 74.444600 2.006800 L 75.269000 2.153000 L 76.205500 2.368400 L 76.978400 2.587900 L 77.954100 2.923300 L 78.675400 3.215900 L 79.656800 3.681000 L 80.326600 4.046700 L 81.273100 4.638200 L 81.891400 5.077100 L 82.760500 5.774100 L 83.327300 6.286100 L 83.910500 6.860400 L 84.174500 7.143800 L 84.369100 7.359200 L 84.530200 7.543100 L 84.786600 7.848500 L 85.081500 8.215100 L 85.434000 8.682100 L 85.692500 9.047400 L 86.045700 9.584100 L 86.267900 9.948000 L 86.613200 10.563800 L 86.799100 10.926300 L 87.123300 11.627400 L 87.272800 11.988500 L 87.557900 12.772900 L 87.671000 13.132600 L 87.897000 13.989100 L 87.973900 14.347500 L 88.095900 15.039800 L 88.120600 15.218500 L 88.208300 16.280700 L 88.198100 16.645000 L 88.208400 16.683800 L 88.358900 17.620500 L 88.415800 18.585500 L 88.420200 19.089300 L 88.420100 19.267600 L 88.410900 20.184000 L 88.403100 20.483900 L 88.370000 21.278800 L 88.344300 21.686100 L 88.287200 22.359600 L 88.243800 22.767200 L 88.206400 23.058400 L 88.144500 23.468600 L 88.064200 23.932500 L 87.916300 24.630200 L 87.693600 25.515300 L 87.393900 26.484400 L 87.088500 27.312500 L 86.660000 28.298500 L 86.271700 29.069500 L 85.866500 29.793600 L 85.641300 30.157700 L 85.463900 30.433800 L 85.331100 30.632800 L 85.072300 31.001300 L 84.793500 31.379000 L 84.406100 31.869200 L 84.109800 32.219800 L 83.672900 32.702200 L 83.359200 33.025600 L 82.873200 33.492400 L 82.542000 33.788600 L 82.014400 34.227200 L 81.665700 34.496400 L 81.096500 34.903300 L 80.730300 35.145200 L 80.136300 35.507000 L 79.752600 35.721900 L 79.290000 35.964500 L 79.091600 36.061700 L 78.680400 36.251200 L 78.273100 36.427200 L 77.485100 36.727000 L 76.633100 37.008500 L 75.588800 37.288700 L 74.687100 37.476400 L 73.684200 37.629800 L 72.732900 37.723700 L 72.024600 37.767000 L 71.530300 37.778700 L 71.107100 37.779300 L 70.690600 37.770600 L 70.070300 37.737300 L 69.266800 37.667800 L 68.386400 37.550000 L 67.622300 37.411100 L 66.696200 37.194300 L 65.971400 36.985900 L 65.603600 36.858900 L 64.970500 37.061700 L 63.814800 37.279600 L 63.216300 37.335500 L 62.605300 37.354500 L 58.100700 37.354500 L 57.313600 37.322000 L 56.541400 37.226200 L 55.787200 37.069300 L 55.054000 36.853400 L 54.722200 36.726000 L 54.403700 36.848900 L 53.667500 37.066700 L 52.910100 37.225000 L 52.134400 37.321700 L 51.343700 37.354500 L 46.633000 37.354500 L 46.022500 37.335600 L 45.424600 37.279700 L 44.269900 37.062300 L 43.701500 36.880300 L 43.164300 37.035100 L 42.605000 37.178000 L 42.019800 37.308700 L 41.471800 37.414300 L 40.868300 37.512300 L 40.337400 37.583200 L 39.715400 37.648500 L 39.206500 37.688200 L 38.566100 37.720800 L 38.202300 37.732300 L 37.875300 37.736400 L 37.597500 37.735800 L 37.100700 37.727500 L 36.590200 37.705300 L 35.652700 37.639100 L 34.880200 37.552600 L 34.017200 37.420100 L 33.137400 37.242200 L 32.348900 37.043500 L 31.364800 36.737800 L 30.650800 36.472800 L 29.586900 36.002000 L 29.445400 35.928700 L 28.857700 36.236700 L 28.560800 36.374000 L 28.044000 36.594700 L 27.736200 36.715500 L 27.005900 36.968300 L 26.364600 37.161500 L 25.921700 37.270100 L 25.588400 37.962000 L 25.112500 38.745300 L 25.031100 38.854100 L 25.868600 38.896400 L 26.811800 39.040400 L 27.444000 39.202900 L 28.076200 39.040400 L 29.019400 38.896400 L 29.990800 38.847400 L 34.289300 38.847400 L 35.258600 38.896200 L 36.200100 39.039600 L 37.108900 39.272800 L 37.758900 39.510200 L 38.354400 39.297500 L 38.948600 39.107100 L 39.554000 38.956100 L 40.299200 38.796000 L 41.370000 38.629200 L 42.188000 38.549200 L 42.894900 38.506500 L 43.331100 38.496500 L 43.705000 38.495300 L 44.009200 38.500300 L 44.516300 38.522200 L 45.095000 38.562700 L 45.843000 38.645000 L 46.382200 38.726000 L 47.214100 38.889200 L 47.340400 38.919900 L 47.494300 38.896400 L 48.465700 38.847400 L 52.543500 38.847400 L 53.514800 38.896400 L 54.458000 39.040400 L 55.368500 39.274500 L 55.891800 39.466000 L 55.897400 39.463800 L 56.753600 39.174200 L 57.451900 38.974500 L 58.228400 38.787400 L 58.988600 38.637700 L 59.679300 38.527900 L 60.501400 38.428100 L 61.109700 38.374000 L 61.993600 38.324000 L 62.403500 38.309700 L 62.868700 38.303500 L 63.118200 38.303400 L 63.574400 38.309300 L 63.968000 38.322600 L 64.834900 38.369800 L 65.421900 38.420000 L 66.228300 38.514300 L 66.894000 38.616200 L 67.640000 38.757600 L 68.391300 38.931900 L 69.076700 39.120500 L 69.909700 39.391600 L 70.534700 39.627400 L 71.408600 40.010000 L 71.633500 39.900400 L 72.198900 39.668500 L 72.647900 39.501000 L 73.632700 39.193400 L 74.140500 39.064600 L 74.983100 38.891100 L 75.549900 38.800900 L 76.263500 38.714900 L 76.889100 38.663400 L 77.489600 38.633000 L 78.174200 38.620100 L 78.564300 38.620800 L 78.928600 38.628900 L 79.069000 38.633100 L 81.056400 38.706700 L 82.000700 38.788300 L 82.915600 38.959300 L 83.796900 39.215100 L 84.640100 39.551200 L 85.441000 39.963100 L 86.195100 40.446200 L 86.898000 40.996100 L 87.545500 41.608100 L 88.133200 42.277800 L 88.656600 43.000700 L 89.111500 43.772100 L 89.493500 44.587600 L 89.798200 45.442700 L 90.021200 46.332900 L 90.158200 47.253500 L 90.204900 48.200200 L 90.204900 51.335800 L 90.151600 52.348700 L 89.995600 53.329900 L 89.742400 54.274000 L 89.397500 55.176000 L 88.966300 56.030600 L 88.795900 56.297600 L 89.058300 56.729500 L 89.458300 57.559900 L 89.777700 58.432700 L 90.011800 59.343200 L 90.155800 60.286400 L 90.204900 61.257800 L 90.204900 64.246100 L 90.155800 65.217400 L 90.011800 66.160600 L 89.777700 67.071100 L 89.458300 67.943900 L 89.058300 68.774300 L 88.582400 69.557600 L 88.035500 70.288900 L 87.422400 70.963600 L 87.291200 71.082900 L 87.172000 71.546300 L 86.852600 72.419100 L 86.452600 73.249500 L 85.976700 74.032800 L 85.429800 74.764100 L 84.816700 75.438800 L 84.142000 76.051900 L 83.410700 76.598800 L 82.627400 77.074700 L 81.797000 77.474700 L 80.924200 77.794100 L 80.013700 78.028200 L 79.070500 78.172200 L 78.099200 78.221300 L 73.947900 78.221300 L 72.976500 78.172200 L 72.033300 78.028200 L 71.122800 77.794100 L 70.250000 77.474700 L 69.419600 77.074700 L 68.636300 76.598800 L 67.905000 76.051900 L 67.230300 75.438800 L 66.617200 74.764100 L 66.117900 74.096500 L 65.546200 74.177000 L 64.864400 74.251500 L 64.325200 74.295000 L 63.608900 74.332200 L 63.236500 74.344200 L 62.865500 74.348900 L 62.594200 74.348500 L 62.204100 74.342300 L 61.720500 74.322200 L 60.973600 74.272200 L 60.272000 74.199000 L 59.569500 74.099200 L 58.798200 73.956900 L 58.140200 73.807200 L 57.308000 73.577700 L 56.694300 73.378000 L 56.162600 73.175500 L 55.368500 73.466100 L 54.458000 73.700200 L 53.514800 73.844200 L 52.543500 73.893300 L 48.289100 73.893300 L 47.317700 73.844200 L 46.374500 73.700200 L 45.464000 73.466100 L 45.322800 73.414400 L 45.181500 73.466100 L 44.271000 73.700200 L 43.327800 73.844200 L 42.356500 73.893300 L 38.057900 73.893300 L 37.086500 73.844200 L 36.143300 73.700200 L 35.232800 73.466100 L 34.656500 73.255200 L 34.461200 73.328300 L 33.842100 73.536000 L 33.323200 73.690500 L 32.451000 73.905900 L 31.928400 74.009000 L 31.014800 74.143500 L 30.488500 74.195000 L 29.796700 74.237300 L 29.532200 74.243800 L 29.047500 74.243300 L 28.654600 74.232900 L 27.874500 74.180100 L 27.116400 74.097300 L 26.022100 73.912600 L 25.300800 73.747000 L 24.655600 73.556700 L 24.529400 73.596800 L 23.785900 73.799200 L 23.116700 73.955600 L 22.438000 74.063200 L 21.606300 74.164400 L 20.727500 74.230200 L 20.278500 74.242900 L 19.863500 74.245500 L 19.623400 74.241800 L 19.165900 74.223700 L 18.702700 74.194200 L 18.048100 74.129700 L 17.607400 74.070800 L 16.903300 73.949600 L 16.485100 73.861300 L 16.309000 73.816600 L 15.372800 73.863900 L 11.295000 73.863900 L 10.323600 73.814800 L 9.380400 73.670800 L 8.469900 73.436700 L 7.597100 73.117300 L 6.766700 72.717300 L 5.983400 72.241400 L 5.252100 71.694500 L 4.577400 71.081400 L 3.964300 70.406700 L 3.417400 69.675400 L 2.941500 68.892100 L 2.541500 68.061700 L 2.222100 67.188900 L 1.988000 66.278400 L 1.844000 65.335200 L 1.795000 64.363900 L 1.795000 48.347400 L 1.844000 47.376000 L 1.988000 46.432800 L 2.222100 45.522300 L 2.541500 44.649500 L 2.941500 43.819100 L 3.417400 43.035800 L 3.964300 42.304500 L 4.577400 41.629800 L 5.252100 41.016700 L 5.983400 40.469800 L 6.405100 40.213600 L 6.336600 40.151300 L 5.723500 39.476600 L 5.176600 38.745300 L 4.700700 37.962000 L 4.300700 37.131600 L 3.981300 36.258800 L 3.747200 35.348300 L 3.603200 34.405100 L 3.554200 33.433800 L 3.554200 11.808500 L 3.603200 10.837100 L 3.747200 9.893900 L 3.981300 8.983400 L 4.300700 8.110600 L 4.700700 7.280200 L 5.176600 6.496900 L 5.723500 5.765600 L 6.336600 5.090900 L 7.011300 4.477800 L 7.742600 3.930900 L 8.525900 3.455000 L 9.356300 3.055000 L 10.229100 2.735600 L 11.139600 2.501500 L 12.082800 2.357500 L 13.054200 2.308500 L 17.235000 2.308500 L 18.206300 2.357500 L 19.149500 2.501500 L 20.060000 2.735600 L 20.238100 2.800800 L 20.416100 2.735600 L 21.326600 2.501500 L 22.269800 2.357500 L 23.241200 2.308500 L 27.525000 2.308500 L 28.496300 2.357500 L 29.439500 2.501500 L 30.160500 2.686900 L 30.506700 2.567200 L 31.339000 2.321500 L 31.812600 2.204900 L 32.615300 2.043600 L 33.112600 1.965800 L 33.875400 1.877900 L 34.396400 1.839100 L 34.929100 1.814400 L 35.198400 1.809500 L 35.646200 1.811900 L 36.067600 1.824100 L 36.928400 1.888300 L 37.738100 1.985800 L 38.347000 2.079200 L 38.948600 2.211900 L 39.640500 2.388200 L 40.077600 2.337200 L 40.818100 2.308500 L 45.381700 2.308500 L 46.353000 2.357500 L 47.296200 2.501500 L 48.206700 2.735600 L 48.880600 2.982200 L 49.490300 2.760800 L 50.190600 2.565700 L 50.908800 2.424000 L 51.642500 2.337600 L 52.388900 2.308500 L 56.819900 2.308500 L 57.565200 2.337600 L 58.297800 2.423700 L 59.015200 2.565000 L 59.714600 2.759600 L 60.393400 3.005800 L 61.049100 3.301600 L 61.679000 3.645200 L 62.280600 4.034700 L 62.483300 4.188800 L 62.775000 4.017600 L 63.527500 3.620100 L 64.180300 3.311900 L 64.977500 2.979000 L 65.652800 2.732400 L 66.478500 2.472900 L 67.176400 2.288000 L 68.006700 2.107300 L 68.727100 1.984000 L 69.544700 1.880300 L 70.287600 1.818700 L 70.880200 1.788200 L 71.260200 1.780500 L 71.641700 1.780400 Z M 78.099200 64.246100 L 80.704900 64.246100 L 80.704900 61.257800 L 78.099200 61.257800 L 78.099200 52.778400 L 78.103100 52.543500 L 78.134400 52.143200 L 78.197000 51.835900 L 78.290800 51.621600 L 78.349500 51.549200 L 78.428100 51.492300 L 78.682100 51.401200 L 79.064800 51.340500 L 79.576400 51.310100 L 79.880500 51.306300 L 80.077400 51.308200 L 80.285300 51.313700 L 80.496900 51.322900 L 80.704900 51.335800 L 80.704900 48.200200 L 78.717500 48.126600 L 78.353200 48.118500 L 77.668600 48.131400 L 77.043000 48.182900 L 76.476200 48.273100 L 75.968400 48.401900 L 75.519400 48.569400 L 75.129200 48.775400 L 74.798000 49.020200 L 74.654500 49.157000 L 74.488900 49.349600 L 74.223900 49.807800 L 74.047300 50.363500 L 73.958900 51.016700 L 73.947900 51.379900 L 73.947900 61.257800 L 71.710300 61.257800 L 71.710300 64.246100 L 73.947900 64.246100 L 73.947900 68.721300 L 78.099200 68.721300 Z M 59.897800 53.200700 L 60.002700 52.722300 L 60.146200 52.324800 L 60.328400 52.008300 L 60.434000 51.880400 L 60.536700 51.778800 L 60.773100 51.595300 L 61.051000 51.437900 L 61.370200 51.306800 L 61.730900 51.202000 L 62.133000 51.123300 L 62.576400 51.070800 L 63.061300 51.044600 L 63.319300 51.041300 L 63.620500 51.047100 L 64.175300 51.093100 L 64.666600 51.185100 L 65.094400 51.323100 L 65.284500 51.409400 L 65.455300 51.507100 L 65.728600 51.737100 L 65.910800 52.013200 L 66.001800 52.335200 L 66.013200 52.513400 L 66.004000 52.684800 L 65.930400 52.995800 L 65.783200 53.264500 L 65.562400 53.490800 L 65.424400 53.588100 L 65.227300 53.688400 L 64.533500 53.938600 L 63.440500 54.255100 L 61.948100 54.637900 L 61.052200 54.854100 L 60.718100 54.940100 L 60.087400 55.119900 L 59.506800 55.310400 L 58.976400 55.511400 L 58.496100 55.723000 L 58.066000 55.945200 L 57.686000 56.178000 L 57.356200 56.421400 L 57.210000 56.547000 L 57.074600 56.675600 L 56.829800 56.953500 L 56.620000 57.258900 L 56.445200 57.592000 L 56.305400 57.952700 L 56.200500 58.340900 L 56.130600 58.756800 L 56.095600 59.200300 L 56.091200 59.432300 L 56.098100 59.707800 L 56.152600 60.243900 L 56.261600 60.760500 L 56.425100 61.257600 L 56.643200 61.735100 L 56.915800 62.193100 L 57.242800 62.631500 L 57.624400 63.050400 L 57.835700 63.252500 L 58.059300 63.445900 L 58.539800 63.795300 L 59.064700 64.094800 L 59.634000 64.344300 L 60.247700 64.544000 L 60.905700 64.693700 L 61.608200 64.793500 L 62.355100 64.843500 L 62.745200 64.849700 L 63.116200 64.845000 L 63.832500 64.807800 L 64.514300 64.733300 L 65.161500 64.621500 L 65.774300 64.472400 L 66.352600 64.286100 L 66.896300 64.062500 L 67.405600 63.801700 L 67.647300 63.657300 L 67.876500 63.499600 L 68.297500 63.143500 L 68.668300 62.733200 L 68.988900 62.268600 L 69.259400 61.749600 L 69.479800 61.176400 L 69.650000 60.549000 L 69.770000 59.867200 L 69.811300 59.506000 L 65.615800 59.506000 L 65.589300 59.703100 L 65.510200 60.065600 L 65.396100 60.385800 L 65.247000 60.663600 L 65.159400 60.786700 L 64.971300 60.986800 L 64.503900 61.307000 L 63.915000 61.520400 L 63.204700 61.627200 L 62.804000 61.640500 L 62.474100 61.633800 L 61.888000 61.580500 L 61.400400 61.473700 L 61.011200 61.313700 L 60.853500 61.213600 L 60.717200 61.104600 L 60.499200 60.872700 L 60.353800 60.622500 L 60.281100 60.353800 L 60.272000 60.212600 L 60.281700 60.038400 L 60.359000 59.727500 L 60.513500 59.466200 L 60.745400 59.254500 L 60.890300 59.167400 L 61.093900 59.075100 L 61.795000 58.845100 L 62.888000 58.554400 L 64.373000 58.202900 L 65.262500 58.004400 L 65.570400 57.928400 L 66.156900 57.762400 L 66.704400 57.577400 L 67.212700 57.373600 L 67.681900 57.151000 L 68.112100 56.909500 L 68.503100 56.649100 L 68.855000 56.369800 L 69.016300 56.223200 L 69.166100 56.069900 L 69.436600 55.749300 L 69.668400 55.409800 L 69.861600 55.051400 L 70.016200 54.674200 L 70.132100 54.278100 L 70.209400 53.863100 L 70.248100 53.429300 L 70.252900 53.205300 L 70.246000 52.910700 L 70.190500 52.341800 L 70.079700 51.800400 L 69.913400 51.286300 L 69.691600 50.799600 L 69.414500 50.340200 L 69.081900 49.908300 L 68.693800 49.503700 L 68.479000 49.311600 L 68.249700 49.128900 L 67.745700 48.798800 L 67.181300 48.515900 L 66.556300 48.280100 L 65.870900 48.091500 L 65.124900 47.950100 L 64.318500 47.855800 L 63.451600 47.808600 L 62.995400 47.802700 L 62.530200 47.808900 L 61.646300 47.858900 L 60.824200 47.958700 L 60.064000 48.108400 L 59.365700 48.308100 L 58.729200 48.557700 L 58.154600 48.857100 L 57.641900 49.206500 L 57.408800 49.399900 L 57.190400 49.603000 L 56.795900 50.029700 L 56.457800 50.483800 L 56.176000 50.965200 L 55.950600 51.474000 L 55.781500 52.010100 L 55.668800 52.573700 L 55.612500 53.164600 L 55.605400 53.470300 L 59.859800 53.470300 Z M 15.372800 62.023300 L 15.566500 62.324800 L 15.945500 62.860300 L 16.313500 63.305600 L 16.670500 63.660700 L 16.844900 63.804500 L 17.000400 63.918600 L 17.328400 64.124700 L 17.679000 64.301300 L 18.052100 64.448500 L 18.447700 64.566300 L 18.865900 64.654600 L 19.306600 64.713500 L 19.769800 64.743000 L 20.009900 64.746700 L 20.458900 64.734000 L 21.290600 64.632800 L 22.034100 64.430400 L 22.689100 64.126800 L 22.983600 63.937000 L 23.204800 63.742600 L 23.606000 63.313900 L 23.951900 62.831800 L 24.242700 62.296300 L 24.367400 62.008500 L 24.579700 62.350100 L 25.041500 62.962900 L 25.553100 63.481800 L 26.114300 63.906900 L 26.413600 64.084200 L 26.742000 64.239500 L 27.426600 64.487900 L 28.147900 64.653500 L 28.906000 64.736300 L 29.298900 64.746700 L 29.563400 64.740200 L 30.089700 64.688700 L 30.612300 64.585600 L 31.131200 64.431100 L 31.389300 64.334500 L 31.643900 64.221800 L 32.135200 63.938400 L 32.602600 63.577700 L 33.046100 63.139800 L 33.258900 62.891800 L 33.421300 62.676000 L 33.704600 62.208600 L 33.932800 61.693400 L 34.105800 61.130300 L 34.171600 60.830800 L 34.206100 60.616700 L 34.261300 60.118000 L 34.298100 59.525500 L 34.316500 58.839100 L 34.318800 58.460800 L 34.289300 48.347400 L 29.990800 48.347400 L 29.990800 58.563800 L 29.986200 58.786900 L 29.949400 59.202800 L 29.875800 59.578200 L 29.765400 59.913100 L 29.696400 60.065400 L 29.622800 60.200800 L 29.453500 60.445600 L 29.254700 60.655300 L 29.026600 60.830200 L 28.768900 60.970000 L 28.481900 61.074900 L 28.165400 61.144800 L 27.819400 61.179800 L 27.635400 61.184200 L 27.422500 61.178500 L 27.021800 61.133400 L 26.654700 61.043300 L 26.321200 60.908000 L 26.021200 60.727700 L 25.754900 60.502300 L 25.522100 60.231800 L 25.322900 59.916200 L 25.235900 59.741500 L 25.156500 59.545300 L 25.029600 59.123900 L 24.944900 58.663900 L 24.902600 58.165200 L 24.897300 57.901400 L 24.897300 48.347400 L 20.672400 48.347400 L 20.672400 57.901400 L 20.667800 58.246200 L 20.631000 58.862600 L 20.557400 59.381500 L 20.446900 59.802900 L 20.377900 59.977000 L 20.307700 60.117900 L 20.143500 60.372300 L 19.947500 60.590300 L 19.719800 60.772000 L 19.460300 60.917400 L 19.169100 61.026400 L 18.846200 61.099100 L 18.491500 61.135400 L 18.302300 61.140000 L 18.082400 61.135400 L 17.670200 61.099100 L 17.294800 61.026400 L 16.956200 60.917400 L 16.654400 60.772000 L 16.389500 60.590300 L 16.161300 60.372300 L 15.969900 60.117900 L 15.888000 59.977000 L 15.808700 59.801300 L 15.681700 59.389100 L 15.597000 58.895900 L 15.554700 58.321800 L 15.549400 58.004400 L 15.549400 48.347400 L 11.295000 48.347400 L 11.295000 64.363900 L 15.372800 64.363900 Z M 42.356500 54.721600 L 42.361500 54.389900 L 42.402000 53.790000 L 42.483000 53.274800 L 42.604400 52.844200 L 42.680400 52.660700 L 42.756400 52.512700 L 42.934500 52.245400 L 43.147000 52.016300 L 43.394000 51.825400 L 43.675600 51.672700 L 43.991600 51.558100 L 44.342200 51.481800 L 44.727200 51.443600 L 44.932700 51.438800 L 45.196000 51.445600 L 45.691000 51.499900 L 46.143700 51.608400 L 46.554100 51.771300 L 46.922100 51.988400 L 47.247800 52.259900 L 47.531200 52.585600 L 47.772200 52.965500 L 47.876900 53.175900 L 47.973500 53.420900 L 48.128100 53.967400 L 48.231100 54.589300 L 48.282600 55.286800 L 48.289100 55.663800 L 48.289100 64.393300 L 52.543500 64.393300 L 52.543500 48.347400 L 48.465700 48.347400 L 48.465700 50.614400 L 48.362700 50.467200 L 48.171300 50.172800 L 48.048000 49.994300 L 47.768300 49.670400 L 47.611900 49.525100 L 47.366400 49.313000 L 46.881500 48.941300 L 46.404900 48.639500 L 45.936600 48.407700 L 45.705500 48.317900 L 45.470600 48.242000 L 44.971000 48.120600 L 44.431800 48.039600 L 43.853100 47.999100 L 43.548900 47.994100 L 43.112700 48.004100 L 42.294700 48.084100 L 41.549500 48.244200 L 40.876900 48.484400 L 40.277000 48.804500 L 39.749800 49.204800 L 39.295300 49.685000 L 38.913500 50.245400 L 38.749800 50.555500 L 38.666000 50.737400 L 38.514700 51.132600 L 38.385000 51.569600 L 38.276900 52.048500 L 38.190400 52.569300 L 38.125500 53.131900 L 38.082300 53.736400 L 38.060600 54.382700 L 38.057900 54.721600 L 38.057900 64.393300 L 42.356500 64.393300 Z M 13.054200 33.433800 L 17.235000 33.433800 L 17.235000 25.764100 L 17.467700 26.100500 L 17.959900 26.693900 L 18.488000 27.181600 L 19.052000 27.563400 L 19.347500 27.714600 L 19.649400 27.844000 L 20.264900 28.051000 L 20.896100 28.189000 L 21.542900 28.258000 L 21.872100 28.266700 L 22.239600 28.258600 L 22.949000 28.194200 L 23.624300 28.065400 L 24.265600 27.872200 L 24.573400 27.751400 L 24.870300 27.614100 L 25.423200 27.288400 L 25.921900 26.894600 L 26.366300 26.432700 L 26.568100 26.176300 L 26.725700 25.951000 L 26.992500 25.495500 L 27.194900 25.033700 L 27.333000 24.565400 L 27.377800 24.328800 L 27.412300 24.072700 L 27.467500 23.447900 L 27.504300 22.673200 L 27.522700 21.748600 L 27.525000 21.230000 L 27.525000 11.808500 L 23.241200 11.808500 L 23.241200 21.568600 L 23.234300 21.884600 L 23.179100 22.469800 L 23.068700 22.992400 L 22.903100 23.452400 L 22.799600 23.659000 L 22.723800 23.794500 L 22.548000 24.039200 L 22.340100 24.249000 L 22.100000 24.423800 L 21.827600 24.563600 L 21.523100 24.668500 L 21.186300 24.738400 L 20.817400 24.773400 L 20.620800 24.777800 L 20.416000 24.773400 L 20.025200 24.738700 L 19.659500 24.669200 L 19.318900 24.565000 L 19.003300 24.426100 L 18.712800 24.252400 L 18.447300 24.044100 L 18.207000 23.800900 L 18.096200 23.666300 L 17.991900 23.523700 L 17.803500 23.216200 L 17.642000 22.879000 L 17.507500 22.512100 L 17.399800 22.115500 L 17.319100 21.689300 L 17.265300 21.233400 L 17.238400 20.747900 L 17.235000 20.493900 L 17.235000 11.808500 L 13.054200 11.808500 Z M 67.950600 18.372400 L 68.014500 17.813900 L 68.120400 17.300500 L 68.268000 16.832200 L 68.457600 16.409000 L 68.689000 16.030800 L 68.962200 15.697800 L 69.277300 15.409800 L 69.450600 15.282700 L 69.673300 15.141200 L 70.151700 14.914900 L 70.674300 14.764000 L 71.241000 14.688600 L 71.541000 14.679100 L 71.857300 14.690600 L 72.444300 14.782600 L 72.970500 14.966600 L 73.436100 15.242700 L 73.646100 15.415200 L 73.860500 15.633200 L 74.250600 16.185300 L 74.426300 16.519300 L 78.710100 16.519300 L 78.685400 16.340600 L 78.608500 15.982200 L 78.495400 15.622500 L 78.345900 15.261400 L 78.160000 14.898900 L 77.937800 14.535000 L 77.679300 14.169700 L 77.384400 13.803100 L 77.223300 13.619200 L 76.959300 13.335800 L 76.392500 12.823800 L 75.774200 12.384900 L 75.104400 12.019200 L 74.383100 11.726600 L 73.610200 11.507100 L 72.785800 11.360900 L 71.909900 11.287700 L 71.452700 11.278600 L 71.072700 11.286300 L 70.329800 11.347900 L 69.609400 11.471200 L 68.911500 11.656100 L 68.236200 11.902700 L 67.583400 12.210900 L 66.953100 12.580800 L 66.345400 13.012300 L 66.050000 13.251200 L 65.766600 13.507400 L 65.254600 14.077900 L 64.815700 14.725600 L 64.450000 15.450600 L 64.157400 16.252900 L 63.938000 17.132500 L 63.791700 18.089400 L 63.718500 19.123500 L 63.709400 19.669600 L 63.717600 20.182700 L 63.783700 21.163500 L 63.915700 22.083600 L 64.113700 22.942900 L 64.377800 23.741600 L 64.707900 24.479400 L 65.103900 25.156600 L 65.566100 25.773100 L 65.821900 26.058500 L 66.090800 26.327700 L 66.658300 26.813900 L 67.265100 27.230700 L 67.911200 27.578100 L 68.596600 27.855900 L 69.321400 28.064300 L 70.085500 28.203200 L 70.889000 28.272700 L 71.305500 28.281400 L 71.799800 28.269700 L 72.751100 28.175800 L 73.652800 27.988100 L 74.504800 27.706600 L 74.912100 27.530600 L 75.110500 27.433400 L 75.494200 27.218500 L 75.860400 26.976600 L 76.209100 26.707400 L 76.540300 26.411200 L 76.854000 26.087800 L 77.150300 25.737200 L 77.429100 25.359500 L 77.561900 25.160500 L 77.787100 24.796400 L 78.175400 24.025400 L 78.480800 23.197300 L 78.703500 22.312200 L 78.783800 21.848300 L 78.821200 21.557100 L 78.878300 20.883600 L 78.911400 20.088700 L 78.920600 19.172300 L 78.916200 18.668500 L 67.934300 18.668500 Z M 30.886800 22.918100 L 30.948500 23.421000 L 31.038600 23.900300 L 31.157300 24.356200 L 31.304500 24.788600 L 31.480300 25.197600 L 31.684500 25.583100 L 31.917300 25.945200 L 32.044400 26.117400 L 32.261600 26.374100 L 32.752000 26.837800 L 33.317000 27.235300 L 33.956400 27.566500 L 34.670400 27.831500 L 35.458900 28.030200 L 36.321900 28.162700 L 37.259400 28.228900 L 37.756200 28.237200 L 38.083200 28.233100 L 38.723600 28.200500 L 39.345600 28.135200 L 39.949100 28.037200 L 40.534300 27.906500 L 41.101100 27.743200 L 41.649400 27.547200 L 42.179400 27.318600 L 42.437500 27.192000 L 42.685200 27.054100 L 43.132900 26.734900 L 43.516500 26.357600 L 43.836200 25.922500 L 44.092000 25.429300 L 44.283900 24.878200 L 44.411700 24.269100 L 44.475700 23.602000 L 44.483700 23.246800 L 44.483700 15.886300 L 44.491000 15.039800 L 44.513100 14.031400 L 44.545300 13.652300 L 44.670500 13.092900 L 44.763400 12.912600 L 44.879300 12.771800 L 45.188500 12.528900 L 45.381700 12.426800 L 45.381700 11.808500 L 40.818100 11.808500 L 40.729800 12.047700 L 40.597300 12.504100 L 40.553200 12.721200 L 40.486900 13.177600 L 40.435400 13.692800 L 40.214100 13.461700 L 39.746700 13.025500 L 39.246200 12.624400 L 38.712600 12.258200 L 38.433300 12.088200 L 38.089200 11.905400 L 37.367900 11.612800 L 36.602400 11.417700 L 35.792700 11.320200 L 35.371300 11.308000 L 35.102000 11.312900 L 34.581000 11.351700 L 34.083700 11.429500 L 33.610100 11.546100 L 33.160200 11.701600 L 32.733900 11.896000 L 32.331400 12.129200 L 31.952600 12.401300 L 31.772000 12.551900 L 31.600000 12.711500 L 31.289300 13.054900 L 31.022900 13.430700 L 30.800900 13.839000 L 30.623400 14.279700 L 30.490200 14.752900 L 30.401400 15.258500 L 30.357000 15.796500 L 30.351500 16.077600 L 30.360400 16.441100 L 30.431700 17.129800 L 30.574300 17.767400 L 30.788200 18.353900 L 31.073400 18.889400 L 31.430000 19.373800 L 31.857800 19.807200 L 32.356900 20.189500 L 32.633200 20.361500 L 32.964400 20.535400 L 33.737300 20.844500 L 34.657400 21.102100 L 35.724600 21.308200 L 36.313500 21.391900 L 37.741400 21.568600 L 38.281500 21.646800 L 39.113300 21.830800 L 39.404900 21.936600 L 39.615400 22.039000 L 39.952100 22.283700 L 40.176600 22.581800 L 40.288900 22.933300 L 40.302900 23.129000 L 40.292200 23.366000 L 40.206600 23.782800 L 40.035500 24.123300 L 39.778800 24.387300 L 39.618400 24.490700 L 39.437200 24.578700 L 39.014900 24.719500 L 38.512600 24.813300 L 37.930200 24.860200 L 37.608900 24.866100 L 37.250800 24.854600 L 36.616000 24.762600 L 36.089700 24.578600 L 35.672000 24.302600 L 35.503800 24.130000 L 35.398000 23.987900 L 35.214000 23.667700 L 35.066800 23.299700 L 34.956400 22.883800 L 34.915000 22.657900 L 30.866700 22.657900 Z M 46.633000 27.854500 L 51.343700 27.854500 L 54.685400 16.018700 L 58.100700 27.854500 L 62.605300 27.854500 L 56.819900 11.808500 L 52.388900 11.808500 Z M 74.520500 21.839400 L 74.368700 22.570900 L 74.116600 23.202000 L 73.764200 23.732900 L 73.550400 23.960800 L 73.317300 24.162600 L 72.810300 24.485500 L 72.249100 24.700800 L 71.633600 24.808500 L 71.305500 24.821900 L 70.951300 24.807700 L 70.304500 24.693600 L 69.739600 24.465400 L 69.256600 24.123100 L 69.045800 23.909200 L 68.854500 23.670900 L 68.527900 23.133600 L 68.275800 22.515300 L 68.098200 21.816100 L 68.037400 21.436100 L 74.558800 21.436100 Z M 36.943200 14.367700 L 37.593600 14.467100 L 38.217500 14.665800 L 38.814600 14.963900 L 39.103100 15.150200 L 39.241500 15.254700 L 39.492400 15.494400 L 39.709100 15.775000 L 39.891500 16.096500 L 40.039600 16.459100 L 40.153500 16.862500 L 40.233100 17.306900 L 40.278400 17.792200 L 40.288200 18.050300 L 40.288200 19.610700 L 40.089000 19.491500 L 39.687800 19.289100 L 39.485900 19.205900 L 39.264600 19.129900 L 38.708900 18.986400 L 38.374400 18.918800 L 37.432300 18.742100 L 37.112800 18.681600 L 36.544200 18.551000 L 36.069400 18.407500 L 35.688500 18.251100 L 35.533300 18.168000 L 35.305600 18.014600 L 34.941200 17.648400 L 34.698300 17.203100 L 34.576900 16.678700 L 34.561700 16.386800 L 34.571100 16.127500 L 34.646600 15.665700 L 34.797500 15.279200 L 35.023800 14.968300 L 35.165200 14.841100 L 35.316600 14.727200 L 35.644100 14.545000 L 36.004800 14.423600 L 36.398600 14.362900 L 36.607900 14.355300 Z" transform="scale(1.000000,1.000000) translate(4.000000,10.000000)" fill="#4dbf08" opacity="1.000000"></path>
    </g>
</svg>