<?xml version="1.0" encoding="UTF-8" standalone="yes"?>
<!DOCTYPE svg PUBLIC "-//W3C//DTD SVG 1.1//EN" "http://www.w3.org/Graphics/SVG/1.1/DTD/svg11.dtd">

<svg width="100" height="100" viewBox="0 0 100 100" xmlns="http://www.w3.org/2000/svg" xmlns:xlink="http://www.w3.org/1999/xlink" version="1.1" baseProfile="full">
    <g transform="scale(1.000000,-1.000000) translate(0,-100)">
        <path d="M 15.794667 48.358847 L 11.496117 48.358847 Q 11.378348 49.256831 10.892553 49.978163 Q 10.185942 50.949754 8.699115 50.949754 Q 6.579282 50.949754 5.799066 48.844642 Q 5.386876 47.725841 5.386876 45.870987 Q 5.386876 44.104460 5.799066 43.029823 Q 6.549840 41.027758 8.625510 41.027758 Q 10.097616 41.027758 10.715900 41.822696 Q 11.334185 42.617633 11.466675 43.883644 L 15.750503 43.883644 Q 15.603293 41.969906 14.366724 40.262263 Q 12.394101 37.509425 8.522462 37.509425 Q 4.650823 37.509425 2.825412 39.805910 Q 1.000000 42.102396 1.000000 45.767940 Q 1.000000 49.904558 3.016785 52.201044 Q 5.033571 54.497529 8.581347 54.497529 Q 11.599164 54.497529 13.520263 53.143192 Q 15.441361 51.788854 15.794667 48.358847 Z M 19.283558 52.377696 Q 20.947038 54.497529 24.995330 54.497529 Q 27.630400 54.497529 29.676627 53.452334 Q 31.722855 52.407139 31.722855 49.507089 L 31.722855 42.146559 Q 31.722855 41.381064 31.752297 40.291705 Q 31.796460 39.467326 32.002555 39.172904 Q 32.208650 38.878483 32.620840 38.687109 L 32.620840 38.068825 L 28.057311 38.068825 Q 27.865937 38.554620 27.792331 38.981531 Q 27.718726 39.408441 27.674563 39.953121 Q 26.806020 39.010973 25.672499 38.348525 Q 24.318161 37.568309 22.610518 37.568309 Q 20.431801 37.568309 19.011218 38.812238 Q 17.590636 40.056168 17.590636 42.337933 Q 17.590636 45.296866 19.872401 46.621761 Q 21.123691 47.343093 23.552666 47.652236 L 24.980609 47.828889 Q 26.143573 47.976099 26.644089 48.196915 Q 27.542073 48.579663 27.542073 49.389321 Q 27.542073 50.375632 26.857544 50.751019 Q 26.173015 51.126406 24.848119 51.126406 Q 23.361292 51.126406 22.743007 50.390353 Q 22.301376 49.845674 22.154165 48.918247 L 18.105873 48.918247 Q 18.238363 51.023359 19.283558 52.377696 Z M 22.404423 41.101364 Q 22.993266 40.615569 23.847087 40.615569 Q 25.201425 40.615569 26.342307 41.410506 Q 27.483189 42.205443 27.527352 44.310555 L 27.527352 45.870987 Q 27.129884 45.620729 26.725055 45.466158 Q 26.320225 45.311587 25.613614 45.179097 L 24.671466 45.002445 Q 23.346571 44.766908 22.772450 44.428323 Q 21.800860 43.854202 21.800860 42.647075 Q 21.800860 41.572437 22.404423 41.101364 Z M 42.999188 51.008638 Q 40.864634 51.008638 40.069697 49.197947 Q 39.657507 48.241078 39.657507 46.754251 L 39.657507 38.068825 L 35.476725 38.068825 L 35.476725 54.085340 L 39.525017 54.085340 L 39.525017 51.744691 Q 40.334676 52.981260 41.056008 53.525939 Q 42.351461 54.497529 44.338804 54.497529 Q 46.826664 54.497529 48.409178 53.194715 Q 49.991692 51.891901 49.991692 48.874084 L 49.991692 38.068825 L 45.693142 38.068825 L 45.693142 47.828889 Q 45.693142 49.094900 45.354558 49.772069 Q 44.736273 51.008638 42.999188 51.008638 Z M 58.044112 56.587920 Q 58.044112 54.365040 56.962114 53.084307 Q 55.880116 51.803575 53.922215 51.420827 L 53.922215 52.966539 Q 55.364879 53.422892 55.909558 54.512250 Q 56.203980 55.159977 56.159817 55.822425 L 53.848610 55.822425 L 53.848610 59.694064 L 58.044112 59.694064 Z M 69.585424 41.057200 L 69.585424 37.921614 L 67.598081 37.848009 Q 64.624427 37.744962 63.535068 38.878483 Q 62.828457 39.599815 62.828457 41.101364 L 62.828457 50.979196 L 60.590856 50.979196 L 60.590856 53.967571 L 62.828457 53.967571 L 62.828457 58.442774 L 66.979797 58.442774 L 66.979797 53.967571 L 69.585424 53.967571 L 69.585424 50.979196 L 66.979797 50.979196 L 66.979797 42.499864 Q 66.979797 41.513553 67.230055 41.270656 Q 67.480313 41.027758 68.761045 41.027758 Q 68.952419 41.027758 69.165874 41.035119 Q 69.379330 41.042479 69.585424 41.057200 Z M 17.237331 10.951437 L 17.237331 1.529958 L 12.953502 1.529958 L 12.953502 11.290022 Q 12.953502 12.585475 12.511870 13.380413 Q 11.937749 14.499213 10.333153 14.499213 Q 8.669673 14.499213 7.808491 13.387773 Q 6.947309 12.276333 6.947309 10.215384 L 6.947309 1.529958 L 2.766527 1.529958 L 2.766527 23.155197 L 6.947309 23.155197 L 6.947309 15.485524 Q 7.860015 16.884025 9.059781 17.436065 Q 10.259548 17.988105 11.584443 17.988105 Q 13.071270 17.988105 14.285758 17.472868 Q 15.500245 16.957630 16.280462 15.897714 Q 16.942909 14.999729 17.090120 14.050221 Q 17.237331 13.100712 17.237331 10.951437 Z M 21.756696 15.838830 Q 23.420176 17.958663 27.468468 17.958663 Q 30.103538 17.958663 32.149766 16.913467 Q 34.195993 15.868272 34.195993 12.968223 L 34.195993 5.607692 Q 34.195993 4.842197 34.225435 3.752838 Q 34.269598 2.928459 34.475693 2.634038 Q 34.681788 2.339617 35.093978 2.148243 L 35.093978 1.529958 L 30.530449 1.529958 Q 30.339075 2.015753 30.265470 2.442664 Q 30.191864 2.869575 30.147701 3.414254 Q 29.279159 2.472106 28.145637 1.809658 Q 26.791299 1.029442 25.083656 1.029442 Q 22.904939 1.029442 21.484357 2.273372 Q 20.063774 3.517301 20.063774 5.799066 Q 20.063774 8.757999 22.345539 10.082895 Q 23.596829 10.804227 26.025804 11.113369 L 27.453747 11.290022 Q 28.616711 11.437232 29.117227 11.658048 Q 30.015212 12.040796 30.015212 12.850454 Q 30.015212 13.836765 29.330682 14.212152 Q 28.646153 14.587540 27.321258 14.587540 Q 25.834430 14.587540 25.216146 13.851486 Q 24.774514 13.306807 24.627303 12.379380 L 20.579011 12.379380 Q 20.711501 14.484492 21.756696 15.838830 Z M 24.877561 4.562497 Q 25.466404 4.076702 26.320225 4.076702 Q 27.674563 4.076702 28.815445 4.871639 Q 29.956327 5.666576 30.000491 7.771688 L 30.000491 9.332121 Q 29.603022 9.081863 29.198193 8.927291 Q 28.793364 8.772720 28.086753 8.640231 L 27.144605 8.463578 Q 25.819709 8.228041 25.245588 7.889457 Q 24.273998 7.315335 24.273998 6.108208 Q 24.273998 5.033571 24.877561 4.562497 Z M 36.345268 17.575915 L 41.056008 17.575915 L 44.397689 5.740182 L 47.812975 17.575915 L 52.317620 17.575915 L 46.532242 1.529958 L 42.101203 1.529958 Z M 68.422461 6.240698 Q 68.260529 4.812755 66.935633 3.340649 Q 64.874685 1.000000 61.164977 1.000000 Q 58.102997 1.000000 55.762348 2.972622 Q 53.421699 4.945244 53.421699 9.391005 Q 53.421699 13.557065 55.534171 15.779945 Q 57.646644 18.002826 61.017767 18.002826 Q 63.019831 18.002826 64.624427 17.252052 Q 66.229022 16.501278 67.274218 14.881961 Q 68.216366 13.454018 68.496066 11.569722 Q 68.657998 10.465642 68.628555 8.389973 L 57.646644 8.389973 Q 57.734970 5.975719 59.162913 5.004129 Q 60.031456 4.400565 61.253304 4.400565 Q 62.548757 4.400565 63.358415 5.136618 Q 63.800047 5.534087 64.138632 6.240698 Z M 64.271121 11.157532 Q 64.168074 12.821012 63.262729 13.682194 Q 62.357383 14.543376 61.017767 14.543376 Q 59.560382 14.543376 58.758084 13.630671 Q 57.955786 12.717965 57.749691 11.157532 Z" transform="scale(1.000000,1.000000) translate(14.707288,19.652968)" fill="#000000" opacity="1.000000"></path>
        <path d="M 72.520500 2.164000 L 73.119500 2.195000 L 73.995400 2.268100 L 74.865300 2.381300 L 75.689700 2.527600 L 76.624300 2.742600 L 77.397100 2.962000 L 78.373200 3.297400 L 79.094600 3.590000 L 80.076400 4.055300 L 80.746200 4.421000 L 81.692700 5.012500 L 82.311000 5.451400 L 83.180700 6.149000 L 83.747400 6.661000 L 84.329900 7.234600 L 84.594000 7.518100 L 84.789000 7.733900 L 84.950000 7.917700 L 85.206900 8.223800 L 85.501800 8.590500 L 85.851800 9.054100 L 86.110400 9.419300 L 86.465300 9.958400 L 86.687500 10.322300 L 87.033700 10.939900 L 87.219500 11.302400 L 87.542800 12.001700 L 87.692300 12.362800 L 87.976900 13.145600 L 88.090100 13.505400 L 88.317200 14.366000 L 88.394000 14.724400 L 88.514600 15.408300 L 88.539400 15.586900 L 88.627700 16.649500 L 88.617600 17.018900 L 88.628000 17.058200 L 88.778500 17.994800 L 88.835400 18.959900 L 88.839800 19.463600 L 88.839700 19.641900 L 88.830500 20.558300 L 88.822700 20.859300 L 88.789500 21.654300 L 88.763900 22.059200 L 88.706900 22.732600 L 88.662900 23.144700 L 88.625400 23.435900 L 88.564100 23.842500 L 88.483800 24.306500 L 88.336000 25.003600 L 88.113400 25.888700 L 87.813000 26.860100 L 87.507500 27.688100 L 87.079800 28.672400 L 86.691500 29.443500 L 86.287000 30.166400 L 86.061900 30.530500 L 85.881600 30.810900 L 85.748700 31.009900 L 85.491800 31.375700 L 85.213000 31.753400 L 84.825800 32.243500 L 84.529600 32.594000 L 84.091500 33.077600 L 83.777700 33.401000 L 83.293900 33.865600 L 82.962700 34.161900 L 82.432600 34.602600 L 82.083900 34.871700 L 81.517500 35.276600 L 81.151300 35.518600 L 80.555100 35.881800 L 80.171500 36.096600 L 79.713100 36.337100 L 79.514700 36.434400 L 79.097400 36.626700 L 78.690000 36.802600 L 77.905500 37.100900 L 77.053500 37.382500 L 76.008500 37.663000 L 75.106900 37.850700 L 74.102800 38.004300 L 73.151400 38.098100 L 72.444100 38.141300 L 71.949800 38.153000 L 71.528800 38.153600 L 71.112300 38.145000 L 70.489700 38.111700 L 69.686300 38.042200 L 68.806000 37.924400 L 68.041900 37.785500 L 67.115800 37.568700 L 66.391000 37.360300 L 66.023100 37.233200 L 65.390100 37.436000 L 64.234400 37.653900 L 63.635900 37.709800 L 63.024900 37.728800 L 58.520200 37.728800 L 57.733100 37.696300 L 56.960900 37.600500 L 56.206700 37.443600 L 55.473500 37.227800 L 55.141600 37.100300 L 54.823200 37.223200 L 54.087000 37.441000 L 53.329600 37.599300 L 52.553900 37.696000 L 51.763200 37.728800 L 47.052500 37.728800 L 46.442000 37.709900 L 45.844100 37.654000 L 44.689400 37.436600 L 44.121100 37.254700 L 43.583800 37.409500 L 43.023300 37.552700 L 42.438200 37.683300 L 41.891100 37.788700 L 41.287500 37.886700 L 40.757100 37.957500 L 40.135200 38.022800 L 39.627600 38.062400 L 38.987200 38.095100 L 38.621800 38.106700 L 38.294700 38.110800 L 38.016900 38.110200 L 37.520200 38.101900 L 37.009900 38.079700 L 36.072300 38.013500 L 35.299700 37.927000 L 34.436700 37.794500 L 33.555800 37.616300 L 32.767300 37.417500 L 31.785400 37.112500 L 31.071400 36.847600 L 30.005300 36.375800 L 29.865000 36.303100 L 29.278400 36.610600 L 28.981600 36.747900 L 28.460200 36.970400 L 28.152300 37.091100 L 27.426700 37.342200 L 26.785400 37.535500 L 26.341100 37.644500 L 26.007900 38.336300 L 25.532000 39.119600 L 25.143500 39.639200 L 25.204500 39.659100 L 26.302200 40.095000 L 26.601700 40.236100 L 26.737900 40.165800 L 27.164100 39.971400 L 28.003200 39.635900 L 28.453100 39.480400 L 29.285400 39.234700 L 29.759000 39.118100 L 30.563500 38.956500 L 31.060800 38.878800 L 31.820000 38.791300 L 32.341000 38.752400 L 32.875600 38.727600 L 33.145000 38.722700 L 33.592700 38.725100 L 34.014000 38.737300 L 34.874800 38.801500 L 35.684500 38.899000 L 36.293400 38.992400 L 36.895000 39.125100 L 37.587000 39.301500 L 38.023900 39.250400 L 38.764500 39.221700 L 43.328100 39.221700 L 44.299400 39.270700 L 44.756000 39.340400 L 45.212600 39.270700 L 46.184000 39.221700 L 50.364700 39.221700 L 51.336000 39.270700 L 52.279200 39.414700 L 53.189700 39.648800 L 53.382500 39.719400 L 53.575300 39.648800 L 54.485800 39.414700 L 55.429000 39.270700 L 56.400400 39.221700 L 60.698900 39.221700 L 61.670200 39.270700 L 62.613400 39.414700 L 63.523900 39.648800 L 64.396700 39.968200 L 65.227100 40.368200 L 66.010400 40.844100 L 66.741700 41.391000 L 67.416400 42.004100 L 67.860000 42.492200 L 68.272800 42.122400 L 68.741600 41.752900 L 69.072900 41.508200 L 69.661900 41.106400 L 70.279200 40.750000 L 70.669300 40.543900 L 71.220800 40.275000 L 71.788400 40.042200 L 72.237400 39.874800 L 73.218800 39.568300 L 73.726600 39.439400 L 74.572500 39.265200 L 75.139300 39.175100 L 75.851300 39.089300 L 76.476900 39.037800 L 77.077400 39.007400 L 77.762000 38.994500 L 78.149500 38.995100 L 78.513800 39.003100 L 78.656800 39.007400 L 80.644200 39.081000 L 81.588500 39.162600 L 82.503400 39.333600 L 83.384700 39.589400 L 84.227900 39.925500 L 85.028800 40.337400 L 85.782900 40.820500 L 86.485800 41.370400 L 87.133300 41.982400 L 87.721000 42.652100 L 88.244400 43.375000 L 88.699300 44.146400 L 89.081300 44.961900 L 89.386000 45.817000 L 89.609000 46.707200 L 89.746000 47.627800 L 89.792700 48.574500 L 89.792700 51.710100 L 89.739400 52.723000 L 89.583400 53.704200 L 89.330200 54.648300 L 88.985300 55.550300 L 88.554100 56.404900 L 88.383700 56.671900 L 88.646100 57.103800 L 89.046100 57.934200 L 89.365500 58.807000 L 89.599600 59.717500 L 89.743600 60.660700 L 89.792700 61.632100 L 89.792700 64.620500 L 89.743600 65.591800 L 89.599600 66.535000 L 89.365500 67.445500 L 89.046100 68.318300 L 88.646100 69.148700 L 88.170200 69.932000 L 87.623300 70.663300 L 87.010200 71.338000 L 86.879000 71.457300 L 86.759800 71.920700 L 86.440400 72.793500 L 86.040400 73.623900 L 85.564500 74.407200 L 85.017600 75.138500 L 84.404500 75.813200 L 83.729800 76.426300 L 82.998500 76.973200 L 82.215200 77.449100 L 81.384800 77.849100 L 80.512000 78.168500 L 79.601500 78.402600 L 78.658300 78.546600 L 77.687000 78.595700 L 73.535700 78.595700 L 73.458400 78.591800 L 73.279600 78.700400 L 72.449200 79.100400 L 71.576400 79.419800 L 70.665900 79.653900 L 69.722700 79.797900 L 68.751400 79.847000 L 64.555800 79.847000 L 63.584400 79.797900 L 62.641200 79.653900 L 61.730700 79.419800 L 60.857900 79.100400 L 60.027500 78.700400 L 59.244200 78.224500 L 58.512900 77.677600 L 57.838200 77.064500 L 57.225100 76.389800 L 56.678200 75.658500 L 56.202300 74.875200 L 56.078400 74.617900 L 56.004800 74.623000 L 55.507900 74.644100 L 55.200400 74.649100 L 54.902900 74.649300 L 54.657200 74.645600 L 54.193700 74.627300 L 53.718500 74.596900 L 53.065000 74.532300 L 52.611400 74.471600 L 51.911200 74.351100 L 51.479200 74.260000 L 51.200100 74.189400 L 50.232300 74.238300 L 46.184000 74.238300 L 45.212600 74.189200 L 44.269400 74.045200 L 43.358900 73.811100 L 42.519600 73.504000 L 42.243800 73.602500 L 41.677500 73.785000 L 41.110700 73.948300 L 40.551400 74.091200 L 39.966200 74.221900 L 39.418200 74.327500 L 38.814700 74.425500 L 38.283800 74.496400 L 37.661800 74.561700 L 37.154500 74.601300 L 36.514200 74.634000 L 36.145800 74.645600 L 35.818700 74.649600 L 35.545800 74.649100 L 35.049000 74.640900 L 34.535600 74.618500 L 33.598100 74.552200 L 32.826600 74.465800 L 31.963600 74.333300 L 31.083800 74.155400 L 30.295300 73.956700 L 29.311200 73.651000 L 28.597200 73.386000 L 27.533300 72.915200 L 27.459700 72.877100 L 27.457400 72.878300 L 26.908600 73.132200 L 26.160300 73.440400 L 25.577200 73.652000 L 24.849200 73.883500 L 24.231900 74.052800 L 23.536400 74.215700 L 22.884700 74.342700 L 22.230500 74.446700 L 21.544600 74.531300 L 20.940000 74.586300 L 20.219800 74.628700 L 19.793900 74.644200 L 19.421000 74.649400 L 19.095300 74.648400 L 18.657800 74.639500 L 18.041100 74.606900 L 17.202000 74.535100 L 16.316800 74.417200 L 15.525500 74.273700 L 14.577900 74.051200 L 13.834500 73.835900 L 12.852400 73.492100 L 12.156900 73.205000 L 11.178800 72.734200 L 10.531000 72.375400 L 9.594300 71.782600 L 8.994400 71.352000 L 8.140300 70.660700 L 7.588300 70.158400 L 7.018800 69.594500 L 6.760700 69.316400 L 6.413000 68.920300 L 6.168800 68.626000 L 5.691700 67.999900 L 5.250500 67.368300 L 4.709900 66.497900 L 4.331800 65.808800 L 3.907900 64.932500 L 3.592800 64.185800 L 3.280400 63.334300 L 3.028300 62.530200 L 2.814100 61.724500 L 2.625000 60.862800 L 2.492300 60.117700 L 2.366200 59.198600 L 2.297800 58.518900 L 2.234800 57.542200 L 2.216200 57.077800 L 2.208300 56.568000 L 2.208400 56.269800 L 2.215600 55.816900 L 2.234500 55.349400 L 2.291500 54.475800 L 2.359700 53.801800 L 2.473800 52.971000 L 2.601800 52.247800 L 2.772900 51.459800 L 2.972800 50.694200 L 3.201000 49.948900 L 3.482500 49.156700 L 3.767700 48.454200 L 4.137500 47.652400 L 4.479800 46.992700 L 4.937100 46.206000 L 5.336400 45.589100 L 5.732800 45.023000 L 5.953800 44.730600 L 6.291800 44.308900 L 6.528000 44.030800 L 7.170500 43.346000 L 7.690800 42.843700 L 8.158500 42.421200 L 8.653100 42.030700 L 8.687900 42.005000 L 8.162200 41.685600 L 7.430900 41.138700 L 6.756200 40.525600 L 6.143100 39.850900 L 5.596200 39.119600 L 5.120300 38.336300 L 4.720300 37.505900 L 4.400900 36.633100 L 4.166800 35.722600 L 4.022800 34.779400 L 3.973800 33.808100 L 3.973800 12.182900 L 4.022800 11.211500 L 4.166800 10.268300 L 4.400900 9.357800 L 4.720300 8.485000 L 5.120300 7.654600 L 5.596200 6.871300 L 6.143100 6.140000 L 6.756200 5.465300 L 7.430900 4.852200 L 8.162200 4.305300 L 8.945500 3.829400 L 9.775900 3.429400 L 10.648700 3.110000 L 11.559200 2.875900 L 12.502400 2.731900 L 13.473800 2.682900 L 17.654500 2.682900 L 18.625800 2.731900 L 19.569000 2.875900 L 20.479500 3.110000 L 20.657600 3.175200 L 20.835600 3.110000 L 21.746100 2.875900 L 22.689300 2.731900 L 23.660700 2.682900 L 27.944600 2.682900 L 28.915900 2.731900 L 29.859100 2.875900 L 30.579900 3.061200 L 30.928000 2.941000 L 31.756600 2.696400 L 32.230200 2.579700 L 33.036600 2.417600 L 33.533900 2.339900 L 34.293100 2.252400 L 34.814100 2.213500 L 35.352200 2.188700 L 35.621600 2.183900 L 36.065800 2.186300 L 36.487200 2.198500 L 37.348100 2.262700 L 38.157700 2.360200 L 38.766000 2.453500 L 39.366900 2.586000 L 40.060200 2.762600 L 40.497200 2.711600 L 41.237700 2.682900 L 45.801200 2.682900 L 46.772500 2.731900 L 47.715700 2.875900 L 48.626200 3.110000 L 49.300100 3.356600 L 49.909800 3.135200 L 50.610100 2.940100 L 51.328400 2.798400 L 52.062000 2.712000 L 52.808400 2.682900 L 57.239500 2.682900 L 57.984800 2.712000 L 58.717400 2.798100 L 59.434800 2.939400 L 60.134200 3.134000 L 60.813000 3.380200 L 61.468700 3.675900 L 62.098600 4.019600 L 62.700200 4.409100 L 62.902800 4.563200 L 63.193900 4.392300 L 63.947000 3.994500 L 64.599800 3.686300 L 65.397000 3.353400 L 66.072300 3.106800 L 66.898000 2.847300 L 67.595900 2.662400 L 68.426200 2.481700 L 69.146600 2.358400 L 69.963100 2.254800 L 70.706100 2.193100 L 71.299700 2.162500 L 71.679600 2.154800 L 72.063200 2.154800 Z M 64.555800 70.347000 L 68.751400 70.347000 L 68.751400 67.240800 L 68.747100 66.966700 L 68.713300 66.440400 L 68.645700 65.943500 L 68.544200 65.476200 L 68.409000 65.038200 L 68.239900 64.629700 L 68.037100 64.250600 L 67.800400 63.901000 L 67.669400 63.737200 L 67.530700 63.580600 L 67.232800 63.288500 L 66.907600 63.024500 L 66.555000 62.788500 L 66.175000 62.580500 L 65.767600 62.400700 L 65.332900 62.248800 L 64.870800 62.125100 L 64.629500 62.073700 L 64.629500 63.619500 L 64.976100 63.743400 L 65.585200 64.050700 L 66.082000 64.437200 L 66.466600 64.902700 L 66.616800 65.165200 L 66.685100 65.327300 L 66.790000 65.653000 L 66.852600 65.980600 L 66.872800 66.310000 L 66.867100 66.475300 L 64.555800 66.475300 Z M 77.687000 64.620500 L 80.292700 64.620500 L 80.292700 61.632100 L 77.687000 61.632100 L 77.687000 53.152800 L 77.690900 52.917800 L 77.722200 52.517600 L 77.784800 52.210300 L 77.878600 51.995900 L 77.937300 51.923600 L 78.016000 51.866600 L 78.269900 51.775600 L 78.652600 51.714800 L 79.164200 51.684500 L 79.468300 51.680700 L 79.665200 51.682500 L 79.873100 51.688000 L 80.084700 51.697200 L 80.292700 51.710100 L 80.292700 48.574500 L 78.305300 48.500900 L 77.941000 48.492900 L 77.256400 48.505800 L 76.630800 48.557300 L 76.064000 48.647400 L 75.556200 48.776300 L 75.107200 48.943700 L 74.717100 49.149800 L 74.385800 49.394500 L 74.242300 49.531400 L 74.076700 49.723900 L 73.811700 50.182100 L 73.635100 50.737800 L 73.546700 51.391100 L 73.535700 51.754300 L 73.535700 61.632100 L 71.298100 61.632100 L 71.298100 64.620500 L 73.535700 64.620500 L 73.535700 69.095700 L 77.687000 69.095700 Z M 22.168200 59.233500 L 22.063300 59.660400 L 21.912400 60.065200 L 21.715500 60.448000 L 21.599800 60.631100 L 21.410900 60.858800 L 20.960100 61.223100 L 20.411800 61.466000 L 19.765900 61.587500 L 19.406400 61.602700 L 19.146600 61.594400 L 18.658500 61.528700 L 18.212300 61.397100 L 17.807900 61.199700 L 17.445400 60.936600 L 17.124800 60.607700 L 16.846000 60.213000 L 16.609100 59.752500 L 16.506300 59.497600 L 16.409700 59.206400 L 16.255100 58.555000 L 16.152100 57.811500 L 16.100600 56.976100 L 16.094100 56.523900 L 16.100600 56.093100 L 16.152100 55.296300 L 16.255100 54.586000 L 16.409700 53.962200 L 16.506300 53.682700 L 16.605300 53.440300 L 16.834400 53.002400 L 17.104900 52.627000 L 17.416800 52.314100 L 17.770100 52.063900 L 18.164800 51.876200 L 18.600900 51.751100 L 19.078500 51.688500 L 19.332700 51.680700 L 19.687400 51.693100 L 20.316800 51.792500 L 20.839400 51.991200 L 21.255200 52.289300 L 21.423100 52.475600 L 21.570100 52.681700 L 21.818500 53.138100 L 22.006200 53.653300 L 22.133200 54.227400 L 22.173900 54.536600 L 26.457700 54.536600 L 26.435100 54.298100 L 26.364200 53.826200 L 26.259400 53.360600 L 26.120400 52.901500 L 25.947400 52.448800 L 25.740400 52.002600 L 25.499400 51.562800 L 25.224300 51.129400 L 25.074000 50.915200 L 24.820000 50.581800 L 24.267500 49.979600 L 23.655600 49.463500 L 22.984400 49.033400 L 22.253900 48.689300 L 21.464000 48.431200 L 20.614800 48.259100 L 19.706200 48.173100 L 19.229700 48.162300 L 18.753700 48.171300 L 17.849800 48.243100 L 17.009800 48.386600 L 16.233700 48.601900 L 15.521500 48.889000 L 14.873400 49.247800 L 14.289100 49.678400 L 13.768800 50.180700 L 13.532600 50.458800 L 13.311600 50.751200 L 12.912300 51.368100 L 12.570000 52.027800 L 12.284800 52.730300 L 12.056600 53.475600 L 11.885500 54.263600 L 11.771400 55.094400 L 11.714400 55.968000 L 11.707200 56.420900 L 11.715100 56.930700 L 11.778100 57.907400 L 11.904200 58.826500 L 12.093300 59.688200 L 12.345400 60.492300 L 12.660500 61.239000 L 13.038600 61.928100 L 13.479800 62.559700 L 13.724000 62.854000 L 13.982100 63.132100 L 14.534100 63.634400 L 15.134000 64.065000 L 15.781800 64.423800 L 16.477300 64.710900 L 17.220700 64.926200 L 18.012000 65.069700 L 18.851100 65.141500 L 19.288600 65.150400 L 19.661500 65.145200 L 20.381700 65.102800 L 21.067600 65.018200 L 21.719300 64.891200 L 22.336600 64.721900 L 22.919700 64.510300 L 23.468500 64.256400 L 23.983100 63.960100 L 24.227500 63.796100 L 24.461500 63.618700 L 24.892800 63.215300 L 25.275100 62.746900 L 25.608400 62.213800 L 25.892700 61.615700 L 26.128000 60.952800 L 26.314300 60.225000 L 26.451600 59.432400 L 26.501900 59.011800 L 22.203400 59.011800 Z M 28.833200 59.831400 L 28.894900 60.334200 L 28.985000 60.813500 L 29.103700 61.269400 L 29.250900 61.701900 L 29.426700 62.110800 L 29.630900 62.496300 L 29.863700 62.858400 L 29.990800 63.030600 L 30.208000 63.287300 L 30.698400 63.751000 L 31.263400 64.148500 L 31.902800 64.479700 L 32.616800 64.744700 L 33.405300 64.943400 L 34.268300 65.075900 L 35.205800 65.142200 L 35.702600 65.150400 L 36.029700 65.146400 L 36.670000 65.113700 L 37.292000 65.048400 L 37.895500 64.950400 L 38.480700 64.819700 L 39.047500 64.656400 L 39.595800 64.460500 L 40.125800 64.231800 L 40.383900 64.105300 L 40.631700 63.967400 L 41.079300 63.648100 L 41.462900 63.270900 L 41.782700 62.835700 L 42.038400 62.342500 L 42.230300 61.791400 L 42.358200 61.182300 L 42.422100 60.515300 L 42.430100 60.160000 L 42.430100 52.799500 L 42.437500 51.953000 L 42.459500 50.944600 L 42.491700 50.565600 L 42.616900 50.006200 L 42.709800 49.825800 L 42.825700 49.685100 L 43.134900 49.442200 L 43.328100 49.340000 L 43.328100 48.721700 L 38.764500 48.721700 L 38.676200 48.961000 L 38.543700 49.417300 L 38.499600 49.634400 L 38.433300 50.090800 L 38.381800 50.606000 L 38.160500 50.374900 L 37.693100 49.938800 L 37.192600 49.537600 L 36.659000 49.171400 L 36.379700 49.001400 L 36.035600 48.818600 L 35.314300 48.526000 L 34.548800 48.330900 L 33.739100 48.233400 L 33.317800 48.221200 L 33.048400 48.226100 L 32.527400 48.265000 L 32.030100 48.342700 L 31.556500 48.459300 L 31.106600 48.614800 L 30.680400 48.809200 L 30.277800 49.042400 L 29.899000 49.314500 L 29.718500 49.465200 L 29.546400 49.624700 L 29.235700 49.968100 L 28.969300 50.344000 L 28.747400 50.752200 L 28.569800 51.193000 L 28.436600 51.666100 L 28.347800 52.171700 L 28.303400 52.709700 L 28.297900 52.990900 L 28.306800 53.354300 L 28.378100 54.043000 L 28.520700 54.680600 L 28.734600 55.267200 L 29.019800 55.802600 L 29.376400 56.287000 L 29.804200 56.720400 L 30.303300 57.102700 L 30.579600 57.274700 L 30.910900 57.448600 L 31.683700 57.757700 L 32.603800 58.015300 L 33.671100 58.221400 L 34.259900 58.305200 L 35.687800 58.481800 L 36.227900 58.560000 L 37.059700 58.744000 L 37.351300 58.849800 L 37.561800 58.952200 L 37.898500 59.196900 L 38.123000 59.495000 L 38.235300 59.846500 L 38.249300 60.042200 L 38.238600 60.279300 L 38.153000 60.696100 L 37.981900 61.036500 L 37.725200 61.300500 L 37.564800 61.403900 L 37.383600 61.491900 L 36.961300 61.632700 L 36.459000 61.726500 L 35.876600 61.773500 L 35.555400 61.779300 L 35.197200 61.767800 L 34.562400 61.675800 L 34.036100 61.491800 L 33.618400 61.215800 L 33.450200 61.043300 L 33.344400 60.901100 L 33.160400 60.580900 L 33.013200 60.212900 L 32.902800 59.797000 L 32.861400 59.571200 L 28.813100 59.571200 Z M 46.184000 64.738300 L 50.232300 64.738300 L 50.232300 62.397600 L 50.433300 62.695900 L 50.827100 63.227700 L 51.209800 63.673100 L 51.581500 64.031900 L 51.763200 64.178900 L 51.927900 64.296500 L 52.273400 64.509000 L 52.640500 64.691200 L 53.029200 64.843000 L 53.439500 64.964500 L 53.871500 65.055600 L 54.325100 65.116300 L 54.800300 65.146700 L 55.046000 65.150400 L 55.353500 65.145400 L 55.947200 65.104600 L 56.512500 65.023200 L 57.049600 64.901100 L 57.558400 64.738200 L 58.038900 64.534700 L 58.491100 64.290400 L 58.915100 64.005400 L 59.116400 63.847600 L 59.308000 63.678100 L 59.654200 63.298800 L 59.950900 62.865900 L 60.198200 62.379400 L 60.396000 61.839300 L 60.544400 61.245700 L 60.643300 60.598400 L 60.692700 59.897500 L 60.698900 59.527000 L 60.698900 48.721700 L 56.400400 48.721700 L 56.400400 58.481800 L 56.395100 58.789100 L 56.352800 59.348500 L 56.268100 59.834300 L 56.141200 60.246500 L 56.061800 60.425000 L 55.980100 60.574700 L 55.790600 60.845200 L 55.566100 61.077100 L 55.306700 61.270300 L 55.012200 61.424900 L 54.682800 61.540800 L 54.318500 61.618100 L 53.919200 61.656700 L 53.706400 61.661600 L 53.444800 61.654500 L 52.953100 61.597900 L 52.503200 61.484700 L 52.095100 61.315000 L 51.728900 61.088600 L 51.404600 60.805700 L 51.122100 60.466200 L 50.881500 60.070100 L 50.776900 59.850900 L 50.680300 59.603400 L 50.525800 59.058700 L 50.422700 58.447800 L 50.371200 57.770600 L 50.364700 57.407200 L 50.364700 48.721700 L 46.184000 48.721700 Z M 34.889600 51.280900 L 35.540100 51.380300 L 36.163900 51.579000 L 36.761000 51.877100 L 37.049500 52.063400 L 37.187900 52.167900 L 37.438800 52.407600 L 37.655500 52.688200 L 37.837900 53.009800 L 37.986000 53.372300 L 38.099900 53.775700 L 38.179500 54.220100 L 38.224800 54.705500 L 38.234600 54.963500 L 38.234600 56.523900 L 38.035400 56.404800 L 37.634200 56.202300 L 37.432300 56.119100 L 37.211000 56.043200 L 36.655300 55.899600 L 36.320900 55.832000 L 35.378700 55.655400 L 35.059200 55.594900 L 34.490600 55.464200 L 34.015900 55.320700 L 33.634900 55.164300 L 33.479700 55.081200 L 33.252000 54.927800 L 32.887600 54.561600 L 32.644700 54.116300 L 32.523300 53.591900 L 32.508100 53.300000 L 32.517500 53.040800 L 32.593000 52.578900 L 32.743900 52.192500 L 32.970200 51.881500 L 33.111700 51.754300 L 33.263000 51.640400 L 33.590600 51.458300 L 33.951200 51.336800 L 34.345000 51.276100 L 34.554300 51.268500 Z M 13.473800 33.808100 L 17.654500 33.808100 L 17.654500 26.138400 L 17.887200 26.474800 L 18.379400 27.068300 L 18.907600 27.555900 L 19.471600 27.937700 L 19.767000 28.089000 L 20.068900 28.218400 L 20.684400 28.425400 L 21.315600 28.563400 L 21.962400 28.632400 L 22.291700 28.641000 L 22.659100 28.633000 L 23.368500 28.568600 L 24.043800 28.439800 L 24.685100 28.246500 L 24.993000 28.125800 L 25.289800 27.988500 L 25.842800 27.662800 L 26.341500 27.269000 L 26.785900 26.807100 L 26.987700 26.550600 L 27.145300 26.325300 L 27.412100 25.869900 L 27.614500 25.408000 L 27.752500 24.939700 L 27.797400 24.703100 L 27.831900 24.447000 L 27.887100 23.822300 L 27.923900 23.047600 L 27.942300 22.122900 L 27.944600 21.604400 L 27.944600 12.182900 L 23.660700 12.182900 L 23.660700 21.942900 L 23.653800 22.259000 L 23.598600 22.844100 L 23.488200 23.366700 L 23.322600 23.826800 L 23.219100 24.033300 L 23.143300 24.168800 L 22.967600 24.413500 L 22.759600 24.623300 L 22.519500 24.798100 L 22.247200 24.938000 L 21.942600 25.042900 L 21.605900 25.112800 L 21.236900 25.147800 L 21.040400 25.152100 L 20.835600 25.147800 L 20.444800 25.113100 L 20.079100 25.043600 L 19.738400 24.939400 L 19.422800 24.800500 L 19.132300 24.626800 L 18.866900 24.418400 L 18.626500 24.175300 L 18.515700 24.040700 L 18.411400 23.898100 L 18.223100 23.590500 L 18.061600 23.253300 L 17.927000 22.886400 L 17.819400 22.489900 L 17.738600 22.063700 L 17.684800 21.607800 L 17.657900 21.122200 L 17.654500 20.868300 L 17.654500 12.182900 L 13.473800 12.182900 Z M 68.370200 18.746700 L 68.434100 18.188300 L 68.539900 17.674900 L 68.687600 17.206600 L 68.877100 16.783300 L 69.108500 16.405200 L 69.381800 16.072100 L 69.696900 15.784100 L 69.870200 15.657000 L 70.092800 15.515600 L 70.571200 15.289300 L 71.093800 15.138400 L 71.660600 15.062900 L 71.960500 15.053500 L 72.276800 15.065000 L 72.863800 15.157000 L 73.390100 15.341000 L 73.855600 15.617000 L 74.065700 15.789500 L 74.280000 16.007600 L 74.670100 16.559600 L 74.845900 16.893600 L 79.129700 16.893600 L 79.104900 16.715000 L 79.028100 16.356600 L 78.914900 15.996800 L 78.765400 15.635700 L 78.579600 15.273200 L 78.357400 14.909300 L 78.098800 14.544100 L 77.803900 14.177400 L 77.642900 13.993600 L 77.378800 13.710100 L 76.812100 13.198100 L 76.193800 12.759200 L 75.524000 12.393500 L 74.802600 12.100900 L 74.029800 11.881500 L 73.205400 11.735200 L 72.329500 11.662100 L 71.872200 11.652900 L 71.492300 11.660600 L 70.749300 11.722300 L 70.028900 11.845600 L 69.331000 12.030500 L 68.655700 12.277100 L 68.002900 12.585300 L 67.372700 12.955200 L 66.765000 13.386700 L 66.469600 13.625500 L 66.186100 13.881800 L 65.674100 14.452200 L 65.235300 15.099900 L 64.869500 15.825000 L 64.577000 16.627300 L 64.357500 17.506800 L 64.211200 18.463700 L 64.138100 19.497900 L 64.128900 20.043900 L 64.137200 20.557100 L 64.203200 21.537900 L 64.335200 22.457900 L 64.533300 23.317300 L 64.797300 24.115900 L 65.127400 24.853800 L 65.523500 25.531000 L 65.985600 26.147400 L 66.241400 26.432900 L 66.510400 26.702000 L 67.077800 27.188300 L 67.684600 27.605100 L 68.330700 27.952400 L 69.016200 28.230300 L 69.741000 28.438700 L 70.505100 28.577600 L 71.308500 28.647100 L 71.725000 28.655700 L 72.219300 28.644000 L 73.170700 28.550200 L 74.072300 28.362500 L 74.924300 28.080900 L 75.331700 27.905000 L 75.530100 27.807700 L 75.913700 27.592900 L 76.279900 27.350900 L 76.628600 27.081800 L 76.959800 26.785500 L 77.273600 26.462100 L 77.569800 26.111600 L 77.848600 25.733900 L 77.981500 25.534900 L 78.206600 25.170800 L 78.594900 24.399700 L 78.900400 23.571700 L 79.123000 22.686600 L 79.203300 22.222600 L 79.240800 21.931400 L 79.297800 21.258000 L 79.331000 20.463000 L 79.340200 19.546600 L 79.335800 19.042900 L 68.353900 19.042900 Z M 31.306400 23.292500 L 31.368000 23.795300 L 31.458200 24.274700 L 31.576900 24.730600 L 31.724100 25.163000 L 31.899800 25.572000 L 32.104100 25.957500 L 32.336900 26.319500 L 32.463900 26.491700 L 32.681200 26.748400 L 33.171600 27.212200 L 33.736500 27.609600 L 34.375900 27.940900 L 35.089900 28.205800 L 35.878400 28.404600 L 36.741400 28.537100 L 37.679000 28.603300 L 38.175700 28.611600 L 38.502800 28.607500 L 39.143200 28.574800 L 39.765100 28.509500 L 40.368700 28.411500 L 40.953800 28.280900 L 41.520600 28.117600 L 42.069000 27.921600 L 42.598900 27.693000 L 42.857000 27.566400 L 43.104800 27.428500 L 43.552400 27.109200 L 43.936100 26.732000 L 44.255800 26.296800 L 44.511600 25.803700 L 44.703400 25.252500 L 44.831300 24.643400 L 44.895200 23.976400 L 44.903200 23.621100 L 44.903200 16.260600 L 44.910600 15.414100 L 44.932700 14.405800 L 44.964900 14.026700 L 45.090000 13.467300 L 45.182900 13.287000 L 45.298900 13.146200 L 45.608000 12.903300 L 45.801200 12.801200 L 45.801200 12.182900 L 41.237700 12.182900 L 41.149400 12.422100 L 41.016900 12.878400 L 40.972700 13.095600 L 40.906500 13.551900 L 40.854900 14.067200 L 40.633700 13.836000 L 40.166300 13.399900 L 39.665800 12.998700 L 39.132100 12.632600 L 38.852900 12.462600 L 38.508800 12.279700 L 37.787400 11.987100 L 37.021900 11.792100 L 36.212300 11.694600 L 35.790900 11.682400 L 35.521500 11.687200 L 35.000500 11.726100 L 34.503200 11.803800 L 34.029600 11.920500 L 33.579700 12.075900 L 33.153500 12.270300 L 32.751000 12.503500 L 32.372100 12.775700 L 32.191600 12.926300 L 32.019600 13.085800 L 31.708800 13.429200 L 31.442500 13.805100 L 31.220500 14.213400 L 31.042900 14.654100 L 30.909700 15.127200 L 30.821000 15.632800 L 30.776600 16.170800 L 30.771000 16.452000 L 30.779900 16.815500 L 30.851200 17.504100 L 30.993800 18.141700 L 31.207800 18.728300 L 31.493000 19.263800 L 31.849500 19.748200 L 32.277300 20.181500 L 32.776500 20.563800 L 33.052800 20.735800 L 33.384000 20.909700 L 34.156900 21.218800 L 35.076900 21.476500 L 36.144200 21.682600 L 36.733000 21.766300 L 38.161000 21.942900 L 38.701100 22.021100 L 39.532800 22.205200 L 39.824500 22.311000 L 40.034900 22.413300 L 40.371700 22.658100 L 40.596200 22.956200 L 40.708400 23.307600 L 40.722400 23.503400 L 40.711800 23.740400 L 40.626200 24.157200 L 40.455100 24.497600 L 40.198400 24.761700 L 40.037900 24.865100 L 39.856800 24.953100 L 39.434500 25.093800 L 38.932100 25.187700 L 38.349700 25.234600 L 38.028500 25.240500 L 37.670400 25.229000 L 37.035500 25.137000 L 36.509200 24.952900 L 36.091500 24.676900 L 35.923400 24.504400 L 35.817600 24.362300 L 35.633600 24.042100 L 35.486400 23.674000 L 35.375900 23.258200 L 35.334500 23.032300 L 31.286200 23.032300 Z M 47.052500 28.228800 L 51.763200 28.228800 L 55.104900 16.393100 L 58.520200 28.228800 L 63.024900 28.228800 L 57.239500 12.182900 L 52.808400 12.182900 Z M 74.940100 22.213800 L 74.788300 22.945200 L 74.536200 23.576400 L 74.183800 24.107300 L 73.970000 24.335100 L 73.736800 24.537000 L 73.229900 24.859900 L 72.668600 25.075200 L 72.053100 25.182800 L 71.725000 25.196300 L 71.370900 25.182000 L 70.724100 25.067900 L 70.159200 24.839800 L 69.676100 24.497500 L 69.465300 24.283600 L 69.274100 24.045300 L 68.947400 23.508000 L 68.695300 22.889700 L 68.517800 22.190400 L 68.456900 21.810500 L 74.978400 21.810500 Z M 37.362700 14.742000 L 38.013200 14.841400 L 38.637000 15.040100 L 39.234100 15.338200 L 39.522700 15.524600 L 39.661000 15.629000 L 39.912000 15.868700 L 40.128600 16.149300 L 40.311000 16.470900 L 40.459200 16.833400 L 40.573000 17.236900 L 40.652600 17.681300 L 40.697900 18.166600 L 40.707700 18.424600 L 40.707700 19.985000 L 40.508500 19.865900 L 40.107400 19.663500 L 39.905400 19.580200 L 39.684200 19.504300 L 39.128400 19.360800 L 38.794000 19.293100 L 37.851800 19.116500 L 37.532300 19.056000 L 36.963700 18.925400 L 36.489000 18.781800 L 36.108100 18.625400 L 35.952800 18.542400 L 35.725100 18.389000 L 35.360800 18.022800 L 35.117900 17.577500 L 34.996400 17.053000 L 34.981200 16.761100 L 34.990700 16.501900 L 35.066100 16.040000 L 35.217000 15.653600 L 35.443300 15.342600 L 35.584800 15.215400 L 35.736200 15.101600 L 36.063700 14.919400 L 36.424400 14.797900 L 36.818100 14.737200 L 37.027500 14.729600 Z" transform="scale(1.000000,1.000000) translate(4.000000,9.000000)" fill="#bf0000" opacity="1.000000"></path>
    </g>
</svg>