<?xml version="1.0" encoding="UTF-8" standalone="yes"?>
<!DOCTYPE svg PUBLIC "-//W3C//DTD SVG 1.1//EN" "http://www.w3.org/Graphics/SVG/1.1/DTD/svg11.dtd">

<svg width="100" height="100" viewBox="0 0 100 100" xmlns="http://www.w3.org/2000/svg" xmlns:xlink="http://www.w3.org/1999/xlink" version="1.1" baseProfile="full">
    <g transform="scale(1.000000,-1.000000) translate(0,-100)">
        <path d="M 14.167989 49.698463 Q 13.638031 50.861427 12.092320 50.861427 Q 10.296350 50.861427 9.678066 49.698463 Q 9.339481 49.036016 9.339481 47.725841 L 9.339481 38.068825 L 5.085094 38.068825 L 5.085094 54.085340 L 9.162828 54.085340 L 9.162828 51.744691 Q 9.943045 52.995981 10.634935 53.525939 Q 11.856783 54.468087 13.799963 54.468087 Q 15.640095 54.468087 16.773617 53.658429 Q 17.686323 52.907655 18.157397 51.729970 Q 18.981776 53.143192 20.203624 53.805639 Q 21.499078 54.468087 23.088952 54.468087 Q 24.148869 54.468087 25.179343 54.055897 Q 26.209817 53.643708 27.048918 52.613233 Q 27.726087 51.774133 27.961624 50.552285 Q 28.108834 49.742626 28.108834 48.182194 L 28.079392 38.068825 L 23.780842 38.068825 L 23.780842 48.285241 Q 23.780842 49.197947 23.486421 49.786790 Q 22.927021 50.905590 21.425472 50.905590 Q 19.688387 50.905590 19.025940 49.462926 Q 18.687355 48.697431 18.687355 47.622794 L 18.687355 38.068825 L 14.462411 38.068825 L 14.462411 47.622794 Q 14.462411 49.050737 14.167989 49.698463 Z M 32.569316 52.377696 Q 34.232796 54.497529 38.281088 54.497529 Q 40.916158 54.497529 42.962385 53.452334 Q 45.008613 52.407139 45.008613 49.507089 L 45.008613 42.146559 Q 45.008613 41.381064 45.038055 40.291705 Q 45.082218 39.467326 45.288313 39.172904 Q 45.494408 38.878483 45.906597 38.687109 L 45.906597 38.068825 L 41.343068 38.068825 Q 41.151695 38.554620 41.078089 38.981531 Q 41.004484 39.408441 40.960321 39.953121 Q 40.091778 39.010973 38.958256 38.348525 Q 37.603919 37.568309 35.896276 37.568309 Q 33.717559 37.568309 32.296976 38.812238 Q 30.876394 40.056168 30.876394 42.337933 Q 30.876394 45.296866 33.158158 46.621761 Q 34.409449 47.343093 36.838424 47.652236 L 38.266367 47.828889 Q 39.429330 47.976099 39.929846 48.196915 Q 40.827831 48.579663 40.827831 49.389321 Q 40.827831 50.375632 40.143302 50.751019 Q 39.458773 51.126406 38.133877 51.126406 Q 36.647050 51.126406 36.028765 50.390353 Q 35.587133 49.845674 35.439923 48.918247 L 31.391631 48.918247 Q 31.524121 51.023359 32.569316 52.377696 Z M 35.690181 41.101364 Q 36.279023 40.615569 37.132845 40.615569 Q 38.487182 40.615569 39.628065 41.410506 Q 40.768947 42.205443 40.813110 44.310555 L 40.813110 45.870987 Q 40.415642 45.620729 40.010812 45.466158 Q 39.605983 45.311587 38.899372 45.179097 L 37.957224 45.002445 Q 36.632329 44.766908 36.058207 44.428323 Q 35.086617 43.854202 35.086617 42.647075 Q 35.086617 41.572437 35.690181 41.101364 Z M 55.254471 42.279048 L 58.566710 54.114782 L 63.027192 54.114782 L 57.521515 38.333804 Q 55.931640 33.770275 55.004213 32.673556 Q 54.076786 31.576837 51.294506 31.576837 Q 50.735105 31.576837 50.396521 31.584197 Q 50.057937 31.591558 49.380768 31.635721 L 49.380768 34.992123 L 49.910726 34.962681 Q 50.529011 34.933239 51.088411 35.006844 Q 51.647811 35.080449 52.030559 35.345429 Q 52.398585 35.595687 52.715088 36.390624 Q 53.031591 37.185561 52.972707 37.362214 L 47.084282 54.114782 L 51.750859 54.114782 Z M 15.470803 10.951437 L 15.470803 1.529958 L 11.186974 1.529958 L 11.186974 11.290022 Q 11.186974 12.585475 10.745343 13.380413 Q 10.171221 14.499213 8.566625 14.499213 Q 6.903146 14.499213 6.041963 13.387773 Q 5.180781 12.276333 5.180781 10.215384 L 5.180781 1.529958 L 1.000000 1.529958 L 1.000000 23.155197 L 5.180781 23.155197 L 5.180781 15.485524 Q 6.093487 16.884025 7.293254 17.436065 Q 8.493020 17.988105 9.817916 17.988105 Q 11.304743 17.988105 12.519230 17.472868 Q 13.733718 16.957630 14.513934 15.897714 Q 15.176382 14.999729 15.323593 14.050221 Q 15.470803 13.100712 15.470803 10.951437 Z M 19.990169 15.838830 Q 21.653649 17.958663 25.701941 17.958663 Q 28.337011 17.958663 30.383238 16.913467 Q 32.429466 15.868272 32.429466 12.968223 L 32.429466 5.607692 Q 32.429466 4.842197 32.458908 3.752838 Q 32.503071 2.928459 32.709166 2.634038 Q 32.915261 2.339617 33.327451 2.148243 L 33.327451 1.529958 L 28.763922 1.529958 Q 28.572548 2.015753 28.498942 2.442664 Q 28.425337 2.869575 28.381174 3.414254 Q 27.512631 2.472106 26.379110 1.809658 Q 25.024772 1.029442 23.317129 1.029442 Q 21.138412 1.029442 19.717829 2.273372 Q 18.297247 3.517301 18.297247 5.799066 Q 18.297247 8.757999 20.579011 10.082895 Q 21.830302 10.804227 24.259277 11.113369 L 25.687220 11.290022 Q 26.850184 11.437232 27.350700 11.658048 Q 28.248684 12.040796 28.248684 12.850454 Q 28.248684 13.836765 27.564155 14.212152 Q 26.879626 14.587540 25.554730 14.587540 Q 24.067903 14.587540 23.449618 13.851486 Q 23.007987 13.306807 22.860776 12.379380 L 18.812484 12.379380 Q 18.944974 14.484492 19.990169 15.838830 Z M 23.111034 4.562497 Q 23.699876 4.076702 24.553698 4.076702 Q 25.908036 4.076702 27.048918 4.871639 Q 28.189800 5.666576 28.233963 7.771688 L 28.233963 9.332121 Q 27.836495 9.081863 27.431665 8.927291 Q 27.026836 8.772720 26.320225 8.640231 L 25.378077 8.463578 Q 24.053182 8.228041 23.479061 7.889457 Q 22.507470 7.315335 22.507470 6.108208 Q 22.507470 5.033571 23.111034 4.562497 Z M 34.578741 17.575915 L 39.289480 17.575915 L 42.631161 5.740182 L 46.046447 17.575915 L 50.551092 17.575915 L 44.765715 1.529958 L 40.334676 1.529958 Z M 66.655933 6.240698 Q 66.494002 4.812755 65.169106 3.340649 Q 63.108157 1.000000 59.398450 1.000000 Q 56.336469 1.000000 53.995821 2.972622 Q 51.655172 4.945244 51.655172 9.391005 Q 51.655172 13.557065 53.767644 15.779945 Q 55.880116 18.002826 59.251239 18.002826 Q 61.253304 18.002826 62.857899 17.252052 Q 64.462495 16.501278 65.507690 14.881961 Q 66.449838 13.454018 66.729539 11.569722 Q 66.891470 10.465642 66.862028 8.389973 L 55.880116 8.389973 Q 55.968443 5.975719 57.396386 5.004129 Q 58.264928 4.400565 59.486776 4.400565 Q 60.782230 4.400565 61.591888 5.136618 Q 62.033520 5.534087 62.372104 6.240698 Z M 62.504594 11.157532 Q 62.401546 12.821012 61.496201 13.682194 Q 60.590856 14.543376 59.251239 14.543376 Q 57.793854 14.543376 56.991556 13.630671 Q 56.189259 12.717965 55.983164 11.157532 Z" transform="scale(1.000000,1.000000) translate(16.066721,22.251235)" fill="#000000" opacity="1.000000"></path>
        <path d="M 70.111400 1.762100 L 70.713500 1.793300 L 71.589400 1.866500 L 72.458200 1.979600 L 73.282600 2.125900 L 74.217200 2.340900 L 74.990000 2.560300 L 75.966100 2.895700 L 76.687500 3.188300 L 77.669300 3.653600 L 78.339100 4.019300 L 79.285600 4.610800 L 79.903900 5.049700 L 80.773600 5.747300 L 81.340300 6.259300 L 81.921600 6.831700 L 82.185700 7.115100 L 82.383500 7.334000 L 82.544500 7.517900 L 82.799000 7.821100 L 83.093900 8.187700 L 83.445400 8.653300 L 83.704000 9.018600 L 84.058200 9.556700 L 84.280400 9.920600 L 84.626600 10.538200 L 84.812400 10.900700 L 85.135700 11.600000 L 85.285200 11.961100 L 85.569800 12.743900 L 85.683000 13.103700 L 85.910000 13.963800 L 85.986800 14.322100 L 86.107600 15.007300 L 86.132400 15.186000 L 86.220700 16.248500 L 86.210600 16.617500 L 86.220900 16.656500 L 86.371400 17.593100 L 86.428300 18.558200 L 86.432700 19.061900 L 86.432600 19.240200 L 86.423400 20.156600 L 86.415600 20.457700 L 86.382400 21.252600 L 86.356800 21.657300 L 86.299800 22.330800 L 86.255800 22.743000 L 86.218300 23.034200 L 86.157000 23.440800 L 86.076700 23.904800 L 85.928900 24.601900 L 85.706300 25.487000 L 85.405900 26.458400 L 85.100400 27.286400 L 84.672400 28.271100 L 84.284100 29.042100 L 83.879900 29.764600 L 83.654800 30.128700 L 83.475800 30.407300 L 83.342900 30.606400 L 83.084700 30.974000 L 82.805900 31.351700 L 82.418700 31.841800 L 82.122500 32.192300 L 81.684400 32.675900 L 81.370600 32.999300 L 80.886800 33.463900 L 80.555600 33.760200 L 80.025500 34.200900 L 79.676800 34.470000 L 79.110400 34.874900 L 78.744200 35.116900 L 78.148000 35.480100 L 77.764400 35.694900 L 77.302500 35.937100 L 77.104100 36.034300 L 76.692100 36.224100 L 76.284700 36.400100 L 75.497500 36.699600 L 74.645500 36.981100 L 73.601400 37.261200 L 72.816800 37.424500 L 73.116700 37.840200 L 73.369300 38.222700 L 73.742600 38.837400 L 74.015800 39.328200 L 74.243900 39.764000 L 74.537900 40.363200 L 74.689900 40.688400 L 75.004500 41.396000 L 75.110200 41.643100 L 75.445600 42.458900 L 75.523900 42.655600 L 75.880000 43.579800 L 75.939900 43.739700 L 76.316600 44.772300 L 76.352100 44.871300 L 76.557900 45.455600 L 82.063600 61.236600 L 82.246000 61.816100 L 82.389800 62.396000 L 82.565000 63.552100 L 82.596300 64.695100 L 82.490700 65.815000 L 82.255100 66.902000 L 81.896700 67.946200 L 81.422400 68.937800 L 80.839100 69.866900 L 80.154000 70.723600 L 79.374000 71.498100 L 78.506200 72.180500 L 77.557400 72.761000 L 76.534800 73.229600 L 75.445300 73.576600 L 74.296000 73.792000 L 73.701100 73.847200 L 73.093900 73.866000 L 68.633400 73.866000 L 67.841100 73.833100 L 67.064100 73.736000 L 66.305300 73.577100 L 65.567900 73.358600 L 65.225600 73.226200 L 64.848100 73.370300 L 64.118400 73.583900 L 63.368100 73.739100 L 62.600100 73.833900 L 61.817500 73.866000 L 57.151000 73.866000 L 56.542800 73.847200 L 55.947100 73.791800 L 54.796400 73.575800 L 54.254400 73.403000 L 53.755900 73.546600 L 53.196600 73.689500 L 52.611400 73.820200 L 52.061900 73.926100 L 51.458400 74.024000 L 50.930500 74.094500 L 50.308500 74.159900 L 49.798100 74.199700 L 49.157700 74.232300 L 48.793900 74.243800 L 48.466900 74.247900 L 48.189100 74.247300 L 47.692300 74.239000 L 47.181800 74.216800 L 46.244300 74.150600 L 45.471800 74.064100 L 44.608800 73.931600 L 43.729000 73.753700 L 42.940500 73.555000 L 41.956400 73.249300 L 41.242400 72.984300 L 40.178500 72.513500 L 40.124800 72.485700 L 39.345900 72.881300 L 39.091300 72.994000 L 38.576000 73.204300 L 38.317900 73.300900 L 37.700400 73.508200 L 37.181500 73.662800 L 36.306000 73.878900 L 35.783400 73.981900 L 34.871500 74.116100 L 34.345200 74.167600 L 33.653400 74.209900 L 33.388900 74.216400 L 32.904100 74.215900 L 32.511300 74.205500 L 31.731400 74.152700 L 30.973200 74.069900 L 29.878800 73.885200 L 29.157500 73.719600 L 28.512400 73.529200 L 28.386400 73.569300 L 27.643000 73.771700 L 26.973600 73.928200 L 26.294700 74.035800 L 25.462900 74.137000 L 24.584200 74.202800 L 24.135200 74.215500 L 23.720100 74.218100 L 23.480100 74.214400 L 23.024900 74.196500 L 22.561600 74.167100 L 21.904800 74.102400 L 21.464100 74.043500 L 20.757800 73.921900 L 20.339600 73.833500 L 20.165200 73.789200 L 19.229500 73.836500 L 15.151800 73.836500 L 14.180400 73.787400 L 13.237200 73.643400 L 12.326700 73.409300 L 11.453900 73.089900 L 10.623500 72.689900 L 9.840200 72.214000 L 9.108900 71.667100 L 8.434200 71.054000 L 7.821100 70.379300 L 7.274200 69.648000 L 6.798300 68.864700 L 6.398300 68.034300 L 6.078900 67.161500 L 5.844800 66.251000 L 5.700800 65.307800 L 5.651800 64.336500 L 5.651800 48.320000 L 5.700800 47.348600 L 5.844800 46.405400 L 6.078900 45.494900 L 6.398300 44.622100 L 6.798300 43.791700 L 7.274200 43.008400 L 7.792800 42.315000 L 7.368800 42.159800 L 6.538400 41.759800 L 5.755100 41.283900 L 5.023800 40.737000 L 4.349100 40.123900 L 3.736000 39.449200 L 3.189100 38.717900 L 2.713200 37.934600 L 2.313200 37.104200 L 1.993800 36.231400 L 1.759700 35.320900 L 1.615700 34.377700 L 1.566700 33.406400 L 1.566700 11.781100 L 1.615700 10.809700 L 1.759700 9.866500 L 1.993800 8.956000 L 2.313200 8.083200 L 2.713200 7.252800 L 3.189100 6.469500 L 3.736000 5.738200 L 4.349100 5.063500 L 5.023800 4.450400 L 5.755100 3.903500 L 6.538400 3.427600 L 7.368800 3.027600 L 8.241600 2.708200 L 9.152100 2.474100 L 10.095300 2.330100 L 11.066700 2.281100 L 15.247500 2.281100 L 16.218800 2.330100 L 17.162000 2.474100 L 18.072500 2.708200 L 18.250500 2.773300 L 18.428500 2.708200 L 19.339000 2.474100 L 20.282200 2.330100 L 21.253600 2.281100 L 25.537500 2.281100 L 26.508800 2.330100 L 27.452000 2.474100 L 28.172900 2.659500 L 28.519100 2.539800 L 29.351400 2.294100 L 29.825000 2.177500 L 30.629500 2.015900 L 31.126800 1.938200 L 31.886000 1.850700 L 32.407000 1.811800 L 32.941600 1.787000 L 33.211000 1.782100 L 33.658700 1.784500 L 34.080100 1.796700 L 34.941000 1.860900 L 35.750600 1.958400 L 36.359500 2.051800 L 36.961000 2.184500 L 37.653000 2.360900 L 38.090000 2.309800 L 38.830600 2.281100 L 43.394100 2.281100 L 44.365400 2.330100 L 45.308600 2.474100 L 46.219100 2.708200 L 46.893000 2.954800 L 47.502700 2.733400 L 48.203000 2.538300 L 48.921200 2.396600 L 49.654900 2.310200 L 50.401300 2.281100 L 54.832400 2.281100 L 55.577700 2.310200 L 56.310300 2.396300 L 57.027700 2.537600 L 57.727100 2.732200 L 58.405900 2.978400 L 59.061600 3.274200 L 59.691500 3.617800 L 60.293100 4.007300 L 60.495700 4.161400 L 60.787800 3.990000 L 61.538800 3.593400 L 62.191600 3.285100 L 62.991500 2.951000 L 63.666900 2.704500 L 64.489400 2.446000 L 65.187200 2.261000 L 66.019100 2.079900 L 66.739500 1.956600 L 67.557200 1.852900 L 68.300200 1.791300 L 68.892600 1.760800 L 69.272500 1.753100 L 69.654100 1.753000 Z M 41.478400 59.429600 L 41.540100 59.932500 L 41.630200 60.411800 L 41.748900 60.867700 L 41.896100 61.300100 L 42.071900 61.709100 L 42.276100 62.094600 L 42.508900 62.456700 L 42.636000 62.628900 L 42.853200 62.885600 L 43.343600 63.349300 L 43.908600 63.746800 L 44.548000 64.078000 L 45.262000 64.343000 L 46.050500 64.541700 L 46.913500 64.674200 L 47.851000 64.740400 L 48.347800 64.748700 L 48.674800 64.744600 L 49.315200 64.712000 L 49.937200 64.646600 L 50.540700 64.548700 L 51.125900 64.418000 L 51.692700 64.254700 L 52.241000 64.058700 L 52.771000 63.830100 L 53.029100 63.703500 L 53.276800 63.565600 L 53.724500 63.246400 L 54.108100 62.869100 L 54.427800 62.433900 L 54.683600 61.940800 L 54.875500 61.389700 L 55.003300 60.780600 L 55.067300 60.113500 L 55.075300 59.758300 L 55.075300 52.397700 L 55.082600 51.551300 L 55.104700 50.542900 L 55.136900 50.163800 L 55.262100 49.604400 L 55.355000 49.424100 L 55.470900 49.283300 L 55.780100 49.040400 L 55.973300 48.938300 L 55.973300 48.320000 L 51.409700 48.320000 L 51.321400 48.559200 L 51.188900 49.015600 L 51.144800 49.232700 L 51.078500 49.689100 L 51.027000 50.204300 L 50.805700 49.973100 L 50.338300 49.537000 L 49.837800 49.135900 L 49.304200 48.769700 L 49.024900 48.599700 L 48.680800 48.416800 L 47.959500 48.124300 L 47.194000 47.929200 L 46.384300 47.831700 L 45.962900 47.819500 L 45.693600 47.824400 L 45.172600 47.863200 L 44.675300 47.941000 L 44.201700 48.057600 L 43.751800 48.213100 L 43.325500 48.407400 L 42.923000 48.640700 L 42.544200 48.912800 L 42.363600 49.063400 L 42.191600 49.223000 L 41.880900 49.566400 L 41.614500 49.942200 L 41.392500 50.350500 L 41.215000 50.791200 L 41.081800 51.264400 L 40.993000 51.769900 L 40.948600 52.308000 L 40.943100 52.589100 L 40.952000 52.952600 L 41.023300 53.641300 L 41.165900 54.278900 L 41.379800 54.865400 L 41.665000 55.400900 L 42.021600 55.885300 L 42.449400 56.318700 L 42.948500 56.701000 L 43.224800 56.872900 L 43.556100 57.046800 L 44.328900 57.356000 L 45.249000 57.613600 L 46.316300 57.819700 L 46.905100 57.903400 L 48.333000 58.080100 L 48.873100 58.158300 L 49.704900 58.342300 L 49.996500 58.448100 L 50.207000 58.550500 L 50.543700 58.795200 L 50.768200 59.093300 L 50.880500 59.444800 L 50.894500 59.640500 L 50.883800 59.877500 L 50.798200 60.294300 L 50.627100 60.634800 L 50.370400 60.898800 L 50.210000 61.002200 L 50.028800 61.090200 L 49.606500 61.231000 L 49.104200 61.324800 L 48.521800 61.371700 L 48.200500 61.377600 L 47.842400 61.366100 L 47.207600 61.274100 L 46.681300 61.090100 L 46.263600 60.814100 L 46.095400 60.641500 L 45.989600 60.499400 L 45.805600 60.179200 L 45.658400 59.811200 L 45.548000 59.395300 L 45.506600 59.169400 L 41.458300 59.169400 Z M 19.229500 61.995900 L 19.423200 62.297400 L 19.802200 62.832900 L 20.170300 63.278200 L 20.527300 63.633400 L 20.701600 63.777100 L 20.857200 63.891200 L 21.185200 64.097300 L 21.535700 64.274000 L 21.908800 64.421200 L 22.304400 64.538900 L 22.722600 64.627300 L 23.163300 64.686200 L 23.626600 64.715600 L 23.866600 64.719300 L 24.315600 64.706600 L 25.147400 64.605400 L 25.890800 64.403000 L 26.545900 64.099400 L 26.840300 63.909600 L 27.061600 63.715300 L 27.462700 63.286500 L 27.808700 62.804400 L 28.099400 62.268900 L 28.224100 61.981200 L 28.436400 62.322700 L 28.898200 62.935500 L 29.409800 63.454400 L 29.971000 63.879500 L 30.270300 64.056800 L 30.598800 64.212100 L 31.283300 64.460500 L 32.004600 64.626100 L 32.762800 64.708900 L 33.155600 64.719300 L 33.420100 64.712800 L 33.946400 64.661300 L 34.469000 64.558300 L 34.987900 64.403700 L 35.246000 64.307100 L 35.500600 64.194400 L 35.992000 63.911000 L 36.459400 63.550300 L 36.902800 63.112400 L 37.115600 62.864400 L 37.278000 62.648700 L 37.561400 62.181300 L 37.789500 61.666000 L 37.962500 61.103000 L 38.028300 60.803500 L 38.062800 60.589300 L 38.118000 60.090600 L 38.154800 59.498100 L 38.173200 58.811800 L 38.175500 58.433400 L 38.146100 48.320000 L 33.847500 48.320000 L 33.847500 58.536400 L 33.842900 58.759500 L 33.806100 59.175400 L 33.732500 59.550800 L 33.622100 59.885700 L 33.553100 60.038000 L 33.479500 60.173500 L 33.310200 60.418200 L 33.111500 60.628000 L 32.883300 60.802800 L 32.625700 60.942600 L 32.338600 61.047500 L 32.022100 61.117400 L 31.676200 61.152400 L 31.492100 61.156800 L 31.279200 61.151100 L 30.878500 61.106100 L 30.511400 61.015900 L 30.177900 60.880600 L 29.877900 60.700300 L 29.611600 60.474900 L 29.378800 60.204400 L 29.179600 59.888800 L 29.092600 59.714100 L 29.013300 59.517900 L 28.886300 59.096500 L 28.801600 58.636500 L 28.759300 58.137800 L 28.754000 57.874000 L 28.754000 48.320000 L 24.529100 48.320000 L 24.529100 57.874000 L 24.524500 58.218800 L 24.487700 58.835200 L 24.414100 59.354100 L 24.303700 59.775500 L 24.234700 59.949600 L 24.164400 60.090500 L 24.000200 60.344900 L 23.804200 60.562900 L 23.576500 60.744600 L 23.317100 60.890000 L 23.025900 60.999000 L 22.702900 61.071700 L 22.348200 61.108100 L 22.159000 61.112600 L 21.939100 61.108100 L 21.526900 61.071700 L 21.151500 60.999000 L 20.812900 60.890000 L 20.511200 60.744600 L 20.246200 60.562900 L 20.018000 60.344900 L 19.826600 60.090500 L 19.744700 59.949600 L 19.665400 59.773900 L 19.538400 59.361700 L 19.453800 58.868600 L 19.411400 58.294400 L 19.406200 57.977000 L 19.406200 48.320000 L 15.151800 48.320000 L 15.151800 64.336500 L 19.229500 64.336500 Z M 65.321100 52.530200 L 68.633400 64.366000 L 73.093900 64.366000 L 67.588200 48.585000 L 67.392000 48.028100 L 67.015300 46.995500 L 66.659200 46.071300 L 66.323800 45.255500 L 66.009200 44.547900 L 65.715200 43.948700 L 65.442000 43.457900 L 65.189400 43.075400 L 65.070900 42.924700 L 64.947700 42.791900 L 64.657900 42.552000 L 64.310100 42.346400 L 63.904400 42.175000 L 63.440600 42.037900 L 62.919000 41.935100 L 62.339300 41.866600 L 61.701700 41.832300 L 61.361200 41.828000 L 60.857000 41.829900 L 60.463200 41.835400 L 60.040000 41.851900 L 59.447400 41.886900 L 59.447400 45.243300 L 59.977400 45.213900 L 60.282900 45.205600 L 60.871700 45.227700 L 61.155100 45.258000 L 61.423700 45.306800 L 61.894800 45.476100 L 62.097200 45.596600 L 62.188400 45.667700 L 62.366000 45.860900 L 62.537100 46.122200 L 62.701800 46.451600 L 62.781800 46.641800 L 62.916500 47.000600 L 63.045400 47.486400 L 63.039400 47.613400 L 57.151000 64.366000 L 61.817500 64.366000 Z M 47.534800 50.879200 L 48.185300 50.978500 L 48.809100 51.177300 L 49.406200 51.475400 L 49.694700 51.661700 L 49.833100 51.766200 L 50.084000 52.005900 L 50.300700 52.286500 L 50.483100 52.608000 L 50.631200 52.970500 L 50.745100 53.374000 L 50.824700 53.818400 L 50.870000 54.303700 L 50.879800 54.561700 L 50.879800 56.122200 L 50.680600 56.003000 L 50.279400 55.800600 L 50.077500 55.717300 L 49.856200 55.641400 L 49.300500 55.497900 L 48.966000 55.430300 L 48.023900 55.253600 L 47.704400 55.193100 L 47.135800 55.062500 L 46.661000 54.919000 L 46.280100 54.762500 L 46.124900 54.679500 L 45.897200 54.526100 L 45.532800 54.159900 L 45.289900 53.714600 L 45.168500 53.190200 L 45.153300 52.898300 L 45.162700 52.639000 L 45.238200 52.177200 L 45.389100 51.790700 L 45.615400 51.479700 L 45.756900 51.352500 L 45.908200 51.238700 L 46.235700 51.056500 L 46.596400 50.935100 L 46.990200 50.874300 L 47.199500 50.866800 Z M 26.873600 36.207700 L 26.576800 36.345100 L 26.053100 36.568700 L 25.745200 36.689400 L 25.018300 36.940900 L 24.377000 37.134100 L 23.934200 37.242700 L 23.600900 37.934600 L 23.125000 38.717900 L 22.941700 38.963100 L 23.557700 38.869000 L 24.529100 38.820000 L 28.754000 38.820000 L 29.725300 38.869000 L 30.668500 39.013000 L 31.300700 39.175500 L 31.932900 39.013000 L 32.876100 38.869000 L 33.847500 38.820000 L 38.146100 38.820000 L 39.115400 38.868800 L 40.056900 39.012200 L 40.765000 39.193900 L 41.098300 39.078700 L 41.930600 38.833000 L 42.404200 38.716400 L 43.206900 38.555100 L 43.704200 38.477300 L 44.467000 38.389400 L 44.988000 38.350600 L 45.520700 38.325900 L 45.790000 38.321000 L 46.237800 38.323400 L 46.659200 38.335600 L 47.520000 38.399800 L 48.329700 38.497300 L 48.938600 38.590700 L 49.540200 38.723400 L 50.232100 38.899700 L 50.445500 38.874800 L 50.638200 38.325100 L 51.009600 37.518500 L 51.233000 37.132700 L 50.922600 37.197600 L 50.146900 37.294300 L 49.356200 37.327100 L 44.645400 37.327100 L 44.034900 37.308200 L 43.437000 37.252300 L 42.282300 37.034900 L 41.713900 36.852900 L 41.177200 37.007600 L 40.617500 37.150600 L 40.032300 37.281300 L 39.484000 37.387000 L 38.880400 37.485000 L 38.350000 37.555800 L 37.728100 37.621100 L 37.220500 37.660700 L 36.580100 37.693400 L 36.211800 37.705000 L 35.884700 37.709000 L 35.611700 37.708500 L 35.115000 37.700300 L 34.601800 37.677900 L 33.664200 37.611600 L 32.892600 37.525200 L 32.029600 37.392700 L 31.149800 37.214800 L 30.361300 37.016100 L 29.376800 36.710300 L 28.662900 36.445300 L 27.599900 35.974800 L 27.458000 35.901300 Z M 11.066700 33.406400 L 15.247500 33.406400 L 15.247500 25.736700 L 15.480100 26.073100 L 15.972300 26.666600 L 16.500500 27.154200 L 17.064500 27.536000 L 17.359900 27.687300 L 17.661800 27.816600 L 18.277300 28.023600 L 18.908500 28.161700 L 19.555300 28.230700 L 19.884600 28.239300 L 20.252000 28.231200 L 20.961400 28.166800 L 21.636700 28.038000 L 22.278000 27.844800 L 22.585900 27.724100 L 22.882700 27.586700 L 23.435700 27.261000 L 23.934400 26.867200 L 24.378800 26.405400 L 24.580600 26.148900 L 24.738200 25.923600 L 25.005000 25.468200 L 25.207400 25.006300 L 25.345400 24.538000 L 25.390300 24.301400 L 25.424800 24.045300 L 25.480000 23.420600 L 25.516800 22.645900 L 25.535200 21.721200 L 25.537500 21.202600 L 25.537500 11.781100 L 21.253600 11.781100 L 21.253600 21.541200 L 21.246700 21.857200 L 21.191500 22.442400 L 21.081100 22.965000 L 20.915500 23.425000 L 20.812000 23.631600 L 20.736200 23.767100 L 20.560500 24.011800 L 20.352600 24.221600 L 20.112400 24.396400 L 19.840100 24.536300 L 19.535500 24.641100 L 19.198800 24.711100 L 18.829800 24.746000 L 18.633300 24.750400 L 18.428500 24.746100 L 18.037700 24.711300 L 17.672000 24.641900 L 17.331300 24.537700 L 17.015700 24.398700 L 16.725200 24.225100 L 16.459800 24.016700 L 16.219400 23.773500 L 16.108600 23.639000 L 16.004400 23.496300 L 15.816000 23.188800 L 15.654500 22.851600 L 15.519900 22.484700 L 15.412300 22.088200 L 15.331600 21.661900 L 15.277700 21.206000 L 15.250800 20.720500 L 15.247500 20.466600 L 15.247500 11.781100 L 11.066700 11.781100 Z M 65.963100 18.345000 L 66.027000 17.786500 L 66.132800 17.273100 L 66.280500 16.804800 L 66.470000 16.381600 L 66.701400 16.003400 L 66.974700 15.670400 L 67.289800 15.382400 L 67.463100 15.255300 L 67.685700 15.113900 L 68.164100 14.887500 L 68.686700 14.736600 L 69.253500 14.661200 L 69.553400 14.651800 L 69.869700 14.663300 L 70.456700 14.755300 L 70.983000 14.939300 L 71.448600 15.215300 L 71.658600 15.387800 L 71.872900 15.605900 L 72.263000 16.157900 L 72.438800 16.491900 L 76.722600 16.491900 L 76.697800 16.313200 L 76.621000 15.954900 L 76.507800 15.595100 L 76.358300 15.234000 L 76.172500 14.871500 L 75.950300 14.507600 L 75.691700 14.142300 L 75.396800 13.775700 L 75.235800 13.591800 L 74.971700 13.308400 L 74.405000 12.796400 L 73.786700 12.357500 L 73.116900 11.991800 L 72.395500 11.699200 L 71.622700 11.479800 L 70.798300 11.333500 L 69.922400 11.260300 L 69.465100 11.251200 L 69.085200 11.258900 L 68.342200 11.320500 L 67.621800 11.443800 L 66.924000 11.628800 L 66.248600 11.875300 L 65.595800 12.183600 L 64.965600 12.553400 L 64.357900 12.984900 L 64.062500 13.223800 L 63.779100 13.480000 L 63.267000 14.050500 L 62.828200 14.698200 L 62.462400 15.423200 L 62.169900 16.225500 L 61.950400 17.105100 L 61.804100 18.062000 L 61.731000 19.096100 L 61.721800 19.642200 L 61.730100 20.155400 L 61.796100 21.136100 L 61.928100 22.056200 L 62.126200 22.915600 L 62.390200 23.714200 L 62.720300 24.452100 L 63.116400 25.129200 L 63.578500 25.745700 L 63.834300 26.031100 L 64.103300 26.300300 L 64.670700 26.786600 L 65.277500 27.203400 L 65.923600 27.550700 L 66.609100 27.828500 L 67.333900 28.036900 L 68.098000 28.175900 L 68.901400 28.245300 L 69.317900 28.254000 L 69.812200 28.242300 L 70.763600 28.148400 L 71.665200 27.960700 L 72.517200 27.679200 L 72.924600 27.503200 L 73.123000 27.406000 L 73.506600 27.191200 L 73.872800 26.949200 L 74.221500 26.680100 L 74.552700 26.383800 L 74.866500 26.060400 L 75.162700 25.709900 L 75.441500 25.332200 L 75.574400 25.133100 L 75.799500 24.769000 L 76.187800 23.998000 L 76.493300 23.170000 L 76.715900 22.284900 L 76.796200 21.820900 L 76.833700 21.529700 L 76.890700 20.856200 L 76.923900 20.061300 L 76.933100 19.144900 L 76.928700 18.641200 L 65.946800 18.641200 Z M 28.899300 22.890800 L 28.960900 23.393600 L 29.051100 23.872900 L 29.169800 24.328800 L 29.317000 24.761300 L 29.492700 25.170200 L 29.697000 25.555700 L 29.929800 25.917800 L 30.056800 26.090000 L 30.274100 26.346700 L 30.764500 26.810400 L 31.329400 27.207900 L 31.968900 27.539100 L 32.682800 27.804100 L 33.471300 28.002800 L 34.334300 28.135300 L 35.271900 28.201600 L 35.768600 28.209800 L 36.095700 28.205800 L 36.736100 28.173100 L 37.358000 28.107800 L 37.961600 28.009800 L 38.546800 27.879100 L 39.113500 27.715800 L 39.661900 27.519900 L 40.191800 27.291200 L 40.449900 27.164700 L 40.697700 27.026800 L 41.145300 26.707500 L 41.529000 26.330300 L 41.848700 25.895100 L 42.104500 25.401900 L 42.296300 24.850800 L 42.424200 24.241700 L 42.488100 23.574700 L 42.496100 23.219400 L 42.496100 15.858900 L 42.503500 15.012400 L 42.525600 14.004000 L 42.557800 13.625000 L 42.682900 13.065600 L 42.775800 12.885200 L 42.891800 12.744500 L 43.200900 12.501600 L 43.394100 12.399400 L 43.394100 11.781100 L 38.830600 11.781100 L 38.742300 12.020400 L 38.609800 12.476700 L 38.565600 12.693800 L 38.499400 13.150200 L 38.447800 13.665400 L 38.226600 13.434300 L 37.759200 12.998200 L 37.258700 12.597000 L 36.725000 12.230800 L 36.445800 12.060800 L 36.101700 11.878000 L 35.380300 11.585400 L 34.614800 11.390300 L 33.805200 11.292800 L 33.383800 11.280600 L 33.114400 11.285500 L 32.593400 11.324400 L 32.096100 11.402100 L 31.622500 11.518700 L 31.172600 11.674200 L 30.746400 11.868600 L 30.343900 12.101800 L 29.965000 12.373900 L 29.784500 12.524600 L 29.612500 12.684100 L 29.301700 13.027500 L 29.035400 13.403400 L 28.813400 13.811600 L 28.635800 14.252400 L 28.502600 14.725500 L 28.413900 15.231100 L 28.369500 15.769100 L 28.363900 16.050300 L 28.372800 16.413700 L 28.444100 17.102400 L 28.586700 17.740000 L 28.800700 18.326600 L 29.085900 18.862000 L 29.442400 19.346400 L 29.870200 19.779800 L 30.369400 20.162100 L 30.645700 20.334100 L 30.976900 20.508000 L 31.749800 20.817100 L 32.669800 21.074700 L 33.737100 21.280800 L 34.325900 21.364600 L 35.753900 21.541200 L 36.294000 21.619400 L 37.125700 21.803400 L 37.417400 21.909200 L 37.627800 22.011600 L 37.964600 22.256300 L 38.189100 22.554400 L 38.301300 22.905900 L 38.315400 23.101600 L 38.304700 23.338700 L 38.219100 23.755500 L 38.048000 24.095900 L 37.791300 24.359900 L 37.630800 24.463300 L 37.449700 24.551300 L 37.027400 24.692100 L 36.525000 24.785900 L 35.942600 24.832900 L 35.621400 24.838700 L 35.263300 24.827200 L 34.628400 24.735200 L 34.102100 24.551200 L 33.684400 24.275200 L 33.516300 24.102700 L 33.410500 23.960500 L 33.226500 23.640300 L 33.079300 23.272300 L 32.968900 22.856400 L 32.927400 22.630600 L 28.879200 22.630600 Z M 44.645400 27.827100 L 49.356200 27.827100 L 52.697800 15.991400 L 56.113100 27.827100 L 60.617800 27.827100 L 54.832400 11.781100 L 50.401300 11.781100 Z M 72.533000 21.812100 L 72.381200 22.543500 L 72.129100 23.174700 L 71.776700 23.705500 L 71.562900 23.933400 L 71.329800 24.135200 L 70.822800 24.458200 L 70.261600 24.673500 L 69.646000 24.781100 L 69.317900 24.794600 L 68.963800 24.780300 L 68.317000 24.666200 L 67.752100 24.438000 L 67.269000 24.095800 L 67.058200 23.881900 L 66.867000 23.643600 L 66.540300 23.106200 L 66.288200 22.488000 L 66.110700 21.788700 L 66.049800 21.408700 L 72.571300 21.408700 Z M 34.955600 14.340300 L 35.606100 14.439700 L 36.229900 14.638400 L 36.827000 14.936500 L 37.115600 15.122800 L 37.253900 15.227300 L 37.504900 15.467000 L 37.721500 15.747600 L 37.903900 16.069200 L 38.052100 16.431700 L 38.165900 16.835100 L 38.245500 17.279500 L 38.290800 17.764900 L 38.300600 18.022900 L 38.300600 19.583300 L 38.101400 19.464200 L 37.700300 19.261700 L 37.498300 19.178500 L 37.277100 19.102600 L 36.721300 18.959000 L 36.386900 18.891400 L 35.444700 18.714800 L 35.125300 18.654300 L 34.556700 18.523600 L 34.081900 18.380100 L 33.701000 18.223700 L 33.545700 18.140600 L 33.318000 17.987200 L 32.953700 17.621000 L 32.710800 17.175700 L 32.589300 16.651300 L 32.574100 16.359400 L 32.583600 16.100200 L 32.659000 15.638300 L 32.809900 15.251900 L 33.036200 14.940900 L 33.177700 14.813700 L 33.329100 14.699800 L 33.656600 14.517700 L 34.017300 14.396200 L 34.411100 14.335500 L 34.620400 14.327900 Z" transform="scale(1.000000,1.000000) translate(6.000000,12.000000)" fill="#bfbf00" opacity="1.000000"></path>
    </g>
</svg>